<?xml version="1.0" encoding="UTF-8"?>
<svg version="1.1" xmlns="http://www.w3.org/2000/svg" width="500" height="500">
<path d="M0 0 C165 0 330 0 500 0 C500 165 500 330 500 500 C335 500 170 500 0 500 C0 335 0 170 0 0 Z " fill="#E4E5E5" transform="translate(0,0)"/>
<path d="M0 0 C6.72192965 -0.07683832 13.44374371 -0.12892623 20.16601562 -0.16479492 C22.44698316 -0.17976739 24.72792247 -0.20015257 27.00878906 -0.22631836 C54.02338726 -0.52819051 77.28348013 4.56384333 98 23 C99.37421814 24.16758752 100.74914337 25.33434369 102.125 26.5 C103.07375 27.325 104.0225 28.15 105 29 C108.75208303 27.72365039 110.84028408 26.40660365 113.4375 23.4375 C128.49430798 7.90135544 151.71889959 0.01851443 172.98374939 -0.3775177 C178.34481997 -0.39963992 183.70220902 -0.33478562 189.0625 -0.25 C191.29750985 -0.22988378 193.5325374 -0.21164216 195.76757812 -0.1953125 C201.17877925 -0.15177107 206.58930377 -0.08527405 212 0 C212.35061585 23.31309337 212.61501571 46.62575134 212.77718258 69.94094753 C212.85448675 80.76711158 212.95984415 91.59163637 213.1315918 102.41674805 C213.28124223 111.85360039 213.37790401 121.28926567 213.41132742 130.72727162 C213.4308637 135.72406406 213.47665542 140.7174612 213.58595085 145.71316338 C213.68808745 150.41995751 213.71912156 155.12197398 213.69661522 159.82977104 C213.70072904 161.55330433 213.73040816 163.2770036 213.78808212 164.99957657 C213.95882239 170.3640683 213.87400253 174.92732321 212 180 C208.34315929 183.89282798 203.5959665 186.13933901 198.75496209 188.23732102 C196.54940367 189.19582209 194.45712224 190.32896397 192.3515625 191.48828125 C191.11286005 192.10342245 189.87080401 192.71187131 188.625 193.3125 C187.96218018 193.63734375 187.29936035 193.9621875 186.61645508 194.296875 C184.74865033 195.20735269 182.87595622 196.10646212 181 197 C179.56333984 197.68642578 179.56333984 197.68642578 178.09765625 198.38671875 C172.44013158 201 172.44013158 201 169 201 C169 149.52 169 98.04 169 45 C151.32930472 50.89023176 140.01241875 56.41478734 131.0078125 72.56640625 C127.8756208 80.12979938 127.69646582 87.30083161 127.68115234 95.3828125 C127.67110672 96.60317703 127.6610611 97.82354156 127.65071106 99.08088684 C127.62523279 102.40472414 127.60830892 105.72839301 127.59528303 109.05228806 C127.57958302 112.53433766 127.55281495 116.01630236 127.5272522 119.49829102 C127.48058543 126.08182079 127.44378303 132.66536676 127.41057932 139.24897671 C127.37227207 146.7484676 127.32288463 154.24787294 127.27259517 161.74729156 C127.16945547 177.16479909 127.08013706 192.58235471 127 208 C125.55748525 208.00617158 124.11496288 208.01057791 122.67243958 208.01423645 C121.46748447 208.01820041 121.46748447 208.01820041 120.23818684 208.02224445 C117.7714725 207.99772876 115.3915462 207.7934394 112.94921875 207.44921875 C112.09102539 207.3291748 111.23283203 207.20913086 110.34863281 207.08544922 C109.03137207 206.88846436 109.03137207 206.88846436 107.6875 206.6875 C106.77194336 206.55359863 105.85638672 206.41969727 104.91308594 206.28173828 C86.48914605 203.48914605 86.48914605 203.48914605 84 201 C83.90068038 199.45595119 83.87091604 197.90737619 83.86869812 196.36013794 C83.86468994 195.35654739 83.86068176 194.35295685 83.85655212 193.31895447 C83.85708084 192.20839188 83.85760956 191.09782928 83.8581543 189.95361328 C83.85467987 188.79095444 83.85120544 187.62829559 83.84762573 186.43040466 C83.84025078 183.89420174 83.83491472 181.35799228 83.83133507 178.82178116 C83.82542695 174.80284575 83.80888446 170.78399904 83.78999329 166.7651062 C83.78365502 165.38863569 83.77732941 164.01216513 83.77101612 162.6356945 C83.76785031 161.94607809 83.7646845 161.25646167 83.76142275 160.54594779 C83.71939303 151.18787469 83.68642356 141.82984074 83.67407227 132.47167969 C83.66566074 126.1634412 83.64304914 119.85542031 83.6047166 113.54729068 C83.58504404 110.21174906 83.57474881 106.87681511 83.57755089 103.54117203 C83.57991432 99.80722986 83.55765339 96.07415646 83.5300293 92.34033203 C83.53663071 91.25001175 83.54323212 90.15969147 83.55003357 89.03633118 C83.4204031 78.30846714 80.20127347 68.14251876 73 60 C64.44046027 52.43861746 55.29025053 47.61289293 44 46 C44 90.22 44 134.44 44 180 C39.23313594 178.09325437 36.3796164 175.99286446 32.75 172.5625 C32.17862305 172.02608887 31.60724609 171.48967773 31.01855469 170.93701172 C16.51792308 157.08438473 0.29076867 136.08340727 -0.36076355 115.2038269 C-0.36935169 113.0549993 -0.36173202 110.90606484 -0.34057617 108.75732422 C-0.34101425 107.57568192 -0.34145233 106.39403961 -0.34190369 105.17658997 C-0.33982723 101.30244962 -0.31654958 97.4287515 -0.29296875 93.5546875 C-0.28569269 90.85613243 -0.28295282 88.15757779 -0.28010559 85.45901489 C-0.27081887 79.10210669 -0.24625138 72.74535513 -0.21605712 66.38851559 C-0.18240737 59.14539654 -0.16600065 51.9022696 -0.15097082 44.65909171 C-0.11969834 29.77264086 -0.06700432 14.88633617 0 0 Z " fill="#265F62" transform="translate(113,197)"/>
<path d="M0 0 C0.00238835 0.81039325 0.00477671 1.6207865 0.00723743 2.45573711 C0.0666335 22.26634923 0.14233827 42.07684218 0.23571491 61.88732433 C0.28048857 71.46792175 0.31994455 81.04848353 0.34643555 90.62915039 C0.36956614 98.98944745 0.4031288 107.34962993 0.44870156 115.70983583 C0.47243295 120.12761563 0.49129207 124.54528337 0.49761391 128.96312523 C0.53384102 151.35024595 0.84853843 173.14925152 7.25 194.8125 C7.55446045 195.86381104 7.8589209 196.91512207 8.17260742 197.99829102 C10.76634509 206.69816116 13.87486473 214.91699191 18 223 C18.36464355 223.7223584 18.72928711 224.4447168 19.10498047 225.18896484 C24.66543949 236.05745056 31.01344775 245.7699153 39 255 C39.46051758 255.53351074 39.92103516 256.06702148 40.39550781 256.61669922 C59.0438375 278.00281803 82.25613844 292.854504 109 302 C110.03125 302.36867188 111.0625 302.73734375 112.125 303.1171875 C154.06801589 317.2074194 199.22470574 310.29055901 238.25 291.0625 C251.07162676 284.58713276 262.20093871 276.42045772 273 267 C276.6704337 268.53780601 278.96809071 270.75065042 281.73828125 273.578125 C282.64126953 274.49207031 283.54425781 275.40601563 284.47460938 276.34765625 C285.42094948 277.31473582 286.36691067 278.28218632 287.3125 279.25 C293.02408824 285.07556233 298.69253118 290.81482563 305 296 C303.20580415 299.91010957 300.76730285 302.27848131 297.5 305 C296.65634888 305.70805786 296.65634888 305.70805786 295.7956543 306.43041992 C288.89136984 312.08849728 281.45015735 316.95374057 273.93847656 321.75927734 C272.40661804 322.73974397 270.88498003 323.73617788 269.3671875 324.73828125 C247.27417334 338.7938727 220.84581919 348.23330074 195 352 C193.28719849 352.26055176 193.28719849 352.26055176 191.53979492 352.52636719 C180.86379605 354.02190008 170.33503962 354.4003909 159.5625 354.375 C158.68870697 354.37445618 157.81491394 354.37391235 156.91464233 354.37335205 C131.11726742 354.29984604 106.90439675 349.80773717 83 340 C82.0203125 339.62617188 81.040625 339.25234375 80.03125 338.8671875 C48.56107464 326.5316558 20.68940923 303.44869514 0 277 C-0.78890625 276.03964844 -1.5778125 275.07929688 -2.390625 274.08984375 C-39.08359831 228.45440053 -43.76488033 174.19597763 -44.92587662 117.99816895 C-45.07836569 110.79447652 -45.29549437 103.6047968 -45.67480469 96.40917969 C-48.37760422 44.11875702 -48.37760422 44.11875702 -33.09235764 26.88580322 C-25.85262394 19.35965062 -17.81641872 12.60393544 -9 7 C-8.34 7 -7.68 7 -7 7 C-6.34 5.68 -5.68 4.36 -5 3 C-4.34 3 -3.68 3 -3 3 C-3 2.34 -3 1.68 -3 1 C-1 0 -1 0 0 0 Z " fill="#29575C" transform="translate(77,121)"/>
<path d="M0 0 C40.26 0 80.52 0 122 0 C122 14.19 122 28.38 122 43 C95.27 43 68.54 43 41 43 C41.33 54.22 41.66 65.44 42 77 C60.15 77.33 78.3 77.66 97 78 C97 91.53 97 105.06 97 119 C80.17 119 63.34 119 46 119 C53.75320376 138.3830094 62.88896528 153.82148886 79 167 C77.40816509 179.18195879 63.78705398 192.95696957 56 202 C51.49143122 201.13721176 48.97329955 198.53123142 45.75 195.4375 C45.1722583 194.89174316 44.5945166 194.34598633 43.99926758 193.78369141 C42.3254127 192.19670185 40.66200202 190.59938342 39 189 C38.22527344 188.26652344 37.45054687 187.53304687 36.65234375 186.77734375 C16.62932873 167.39124372 0.95726318 137.83804327 -0.08967781 109.57945442 C-0.12268429 106.69384025 -0.12366472 103.80986069 -0.11352539 100.92407227 C-0.11364593 99.81306373 -0.11376646 98.70205519 -0.11389065 97.55737972 C-0.11314693 93.97703455 -0.10554336 90.39674206 -0.09765625 86.81640625 C-0.09618516 84.59956894 -0.09516548 82.38273128 -0.09460449 80.16589355 C-0.08937102 71.96475706 -0.07540976 63.76362801 -0.0625 55.5625 C-0.041875 37.226875 -0.02125 18.89125 0 0 Z " fill="#26686A" transform="translate(346,196)"/>
<path d="M0 0 C4.76626795 0.51259863 8.04244417 2.7604836 11.875 5.4375 C13.20945331 6.34922494 14.54409419 7.26067537 15.87890625 8.171875 C16.55969238 8.64044922 17.24047852 9.10902344 17.94189453 9.59179688 C20.57873588 11.39598441 23.24037541 13.16108076 25.90454102 14.92456055 C32.34007569 19.18444805 38.70839311 23.52925816 45 28 C44.40074509 30.88305128 43.54853768 32.99659057 41.93359375 35.453125 C41.3293457 36.38125 41.3293457 36.38125 40.71289062 37.328125 C40.29201172 37.96234375 39.87113281 38.5965625 39.4375 39.25 C38.80038086 40.22453125 38.80038086 40.22453125 38.15039062 41.21875 C37.1052694 42.81578918 36.05330163 44.4083442 35 46 C35.70866211 46.26264648 36.41732422 46.52529297 37.14746094 46.79589844 C40.1607837 48.06786932 42.83823971 49.5800713 45.640625 51.265625 C47.24744141 52.23048828 47.24744141 52.23048828 48.88671875 53.21484375 C49.99660156 53.88644531 51.10648437 54.55804688 52.25 55.25 C53.34441406 55.90613281 54.43882812 56.56226563 55.56640625 57.23828125 C60.38446995 60.14065975 65.13203825 63.06204404 69.734375 66.296875 C73.2483228 68.68399224 76.51270947 69.91210261 80.55712891 71.11816406 C85.76592836 72.99845425 90.4402499 76.06047529 95.1875 78.875 C96.32227783 79.53902832 97.45705566 80.20305664 98.6262207 80.88720703 C100.95961108 82.25299561 103.28984116 83.62393761 105.6171875 85 C108.76248199 86.85957365 111.91180698 88.71209299 115.0625 90.5625 C119.5782105 93.21873217 124.08615557 95.88771551 128.58886719 98.56591797 C130.14351453 99.49058367 131.69880546 100.41416859 133.25488281 101.33642578 C156.3338045 115.01537363 156.3338045 115.01537363 159 120 C159.83124398 124.70746593 159.48986209 128.03841887 157.3125 132.3125 C152.95308847 137.37884313 149.95581341 139.50227228 143.32543945 140.11450195 C139.46274893 139.92430753 137.01126442 137.84060918 134.1875 135.4375 C132.88645972 134.40848628 131.58294153 133.38260004 130.27734375 132.359375 C129.58882324 131.81087891 128.90030273 131.26238281 128.19091797 130.69726562 C124.32335169 127.70113004 120.27766909 124.96228952 116.25 122.1875 C107.13945773 115.85060203 98.18112796 109.3254977 89.28271484 102.69482422 C86.9941903 100.99568653 84.69554629 99.3110784 82.39453125 97.62890625 C80.95033885 96.56535124 79.50632021 95.50156022 78.0625 94.4375 C77.40604492 93.96103027 76.74958984 93.48456055 76.07324219 92.99365234 C71.65580798 89.71729151 68.25905547 86.442492 65.69921875 81.4765625 C63.37222014 78.08502889 60.29786792 76.39759477 56.8125 74.375 C50.08467907 70.34094155 43.60916855 66.057137 37.22973633 61.49169922 C34.06043565 59.2594764 31.81418018 57.95354504 28 57 C24.7 61.62 21.4 66.24 18 71 C12.27947965 70.04657994 10.85738146 69.55060903 6.5 66.3125 C-0.64071606 61.1249862 -8.08598119 56.45662282 -15.57226562 51.78637695 C-16.48943359 51.20976318 -17.40660156 50.63314941 -18.3515625 50.0390625 C-19.17479004 49.52553223 -19.99801758 49.01200195 -20.84619141 48.48291016 C-22.83472168 47.11379512 -24.45969182 45.85698082 -26 44 C-25.87003017 39.51986349 -23.49015966 36.23192568 -21.0625 32.625 C-20.66571045 32.02139648 -20.2689209 31.41779297 -19.86010742 30.79589844 C-18.58252153 28.85769864 -17.2929878 26.92795432 -16 25 C-15.56880859 24.35579102 -15.13761719 23.71158203 -14.69335938 23.04785156 C-14.26345703 22.40557617 -13.83355469 21.76330078 -13.390625 21.1015625 C-12.96305908 20.46275146 -12.53549316 19.82394043 -12.0949707 19.16577148 C-11.2453128 17.89654141 -10.39489895 16.62781703 -9.54370117 15.35961914 C-6.18907826 10.34061522 -3.02459128 5.22541176 0 0 Z " fill="#2E3A47" transform="translate(232,44)"/>
<path d="M0 0 C0.99811203 -0.01134979 1.99622406 -0.02269958 3.02458191 -0.03439331 C4.65797768 -0.02999741 4.65797768 -0.02999741 6.32437134 -0.0255127 C8.05180321 -0.03821701 8.05180321 -0.03821701 9.81413269 -0.05117798 C13.62706499 -0.07460725 17.43959511 -0.07556863 21.25259399 -0.07434082 C23.90051435 -0.08143914 26.54843316 -0.08913765 29.1963501 -0.09741211 C34.74963658 -0.11201786 40.30281077 -0.1126004 45.85610962 -0.10656738 C52.26830876 -0.0999292 58.67993227 -0.12278185 65.09201467 -0.15988111 C70.60300517 -0.19060597 76.11381079 -0.2019351 81.6248852 -0.1980443 C84.91386691 -0.19597929 88.2023013 -0.20365734 91.49122238 -0.22593689 C95.16133051 -0.24806066 98.83004938 -0.23845569 102.50015259 -0.2208252 C103.58503464 -0.23408844 104.66991669 -0.24735168 105.78767395 -0.26101685 C114.02052365 -0.16908138 114.02052365 -0.16908138 117.76300049 2.37036133 C120.04165649 5.39440918 120.04165649 5.39440918 120.04165649 14.39440918 C77.47165649 14.39440918 34.90165649 14.39440918 -8.95834351 14.39440918 C-8.95834351 10.76440918 -8.95834351 7.13440918 -8.95834351 3.39440918 C-4.45805587 0.01919346 -4.45805587 0.01919346 0 0 Z " fill="#35424D" transform="translate(165.95834350585938,166.6055908203125)"/>
<path d="M0 0 C0.33 56.1 0.66 112.2 1 170 C0.01 168.68 -0.98 167.36 -2 166 C-1.34 166 -0.68 166 0 166 C-0.15847412 165.48767822 -0.31694824 164.97535645 -0.48022461 164.44750977 C-1.81920857 158.14252421 -1.41852902 151.37442685 -1.5625 144.9375 C-1.58367889 144.05025238 -1.60485779 143.16300476 -1.62667847 142.24887085 C-2.38304826 109.51019373 -2.08614156 76.74492621 -2 44 C-2.65462219 44.0714624 -3.30924438 44.1429248 -3.98370361 44.21655273 C-8.6042735 44.70323052 -13.14498086 45.12431919 -17.796875 45.0625 C-19.26447266 45.05089844 -19.26447266 45.05089844 -20.76171875 45.0390625 C-21.74785156 45.02617187 -22.73398437 45.01328125 -23.75 45 C-25.74473526 44.97432773 -27.73953754 44.95335301 -29.734375 44.9375 C-30.60288086 44.92589844 -31.47138672 44.91429687 -32.36621094 44.90234375 C-35.31011434 45.01149849 -38.10039079 45.49491685 -41 46 C-41.02338636 61.00362251 -41.04100734 76.0072436 -41.05181217 91.01088047 C-41.05696295 97.97771884 -41.06398239 104.94454587 -41.07543945 111.91137695 C-41.08649153 118.63516839 -41.09228517 125.35894561 -41.09487724 132.08274651 C-41.09672442 134.64755374 -41.10033146 137.21236033 -41.10573006 139.77716255 C-41.11299239 143.37041745 -41.11398874 146.96362371 -41.11352539 150.55688477 C-41.11712067 151.6164035 -41.12071594 152.67592224 -41.12442017 153.76754761 C-41.69082411 162.38975622 -41.69082411 162.38975622 -39 170 C-38.95936168 171.66617115 -38.957279 173.33388095 -39 175 C-38.34 175.33 -37.68 175.66 -37 176 C-37.99 176.99 -37.99 176.99 -39 178 C-39.99 178 -40.98 178 -42 178 C-42.76867131 170.24740165 -43.2958272 162.50628342 -43.65307617 154.72436523 C-43.73521614 152.96045189 -43.73521614 152.96045189 -43.8190155 151.16090393 C-44.30137036 140.30163815 -44.60599757 129.44007731 -44.84374523 118.57308865 C-45.00689246 111.30608888 -45.2338014 104.05255141 -45.61987305 96.79370117 C-48.36923369 44.08208546 -48.36923369 44.08208546 -33.09693241 26.85377979 C-25.86011145 19.33173206 -17.82127156 12.58685813 -9 7 C-8.34 7 -7.68 7 -7 7 C-6.34 5.68 -5.68 4.36 -5 3 C-4.34 3 -3.68 3 -3 3 C-3 2.34 -3 1.68 -3 1 C-1 0 -1 0 0 0 Z " fill="#328880" transform="translate(77,121)"/>
<path d="M0 0 C4.69443658 0.52915573 7.31227099 2.12604291 11.15234375 4.73828125 C11.83570801 5.18469971 12.51907227 5.63111816 13.22314453 6.09106445 C14.67244746 7.03909109 16.11752552 7.99360385 17.55859375 8.95410156 C19.77374686 10.42339546 22.00576315 11.862408 24.24609375 13.29296875 C28.44292034 15.97422327 32.61381573 18.69319436 36.77734375 21.42578125 C37.82921875 22.11027344 38.88109375 22.79476562 39.96484375 23.5 C40.85171875 24.09425781 41.73859375 24.68851563 42.65234375 25.30078125 C43.39226562 25.79320313 44.1321875 26.285625 44.89453125 26.79296875 C47.70495819 29.23022697 49.58026188 31.77214117 50.02734375 35.5234375 C49.558455 39.20861003 49.11868422 41.02420423 46.65234375 43.92578125 C42.96440451 45.84992346 40.92110163 45.83294681 36.77734375 45.42578125 C33.92553383 44.23553841 31.42029983 42.61555143 28.83984375 40.92578125 C28.08566162 40.4474585 27.33147949 39.96913574 26.55444336 39.47631836 C23.94915607 37.81203983 21.36317582 36.12011953 18.77734375 34.42578125 C17.22853516 33.42248779 17.22853516 33.42248779 15.6484375 32.39892578 C12.37123052 30.2735262 9.10363031 28.1342252 5.83984375 25.98828125 C4.79127197 25.3025 3.7427002 24.61671875 2.66235352 23.91015625 C1.68065186 23.25660156 0.6989502 22.60304688 -0.3125 21.9296875 C-1.18769287 21.35033447 -2.06288574 20.77098145 -2.96459961 20.17407227 C-6.78726391 17.21439024 -8.09726793 15.39754073 -8.72265625 10.55078125 C-8.58874539 7.44172049 -7.97890565 5.45882497 -6.16015625 2.92578125 C-3.22265625 0.42578125 -3.22265625 0.42578125 0 0 Z " fill="#313C48" transform="translate(244.22265625,20.57421875)"/>
<path d="M0 0 C4.27281459 1.09027794 7.48231318 3.49329684 11.00805664 6.06152344 C12.58077612 7.16002723 14.15502685 8.25634161 15.73071289 9.35058594 C16.51591309 9.90133789 17.30111328 10.45208984 18.11010742 11.01953125 C21.64656706 13.44913744 25.28829416 15.69470663 28.94555664 17.93652344 C45.82137864 28.37566744 45.82137864 28.37566744 47.44555664 31.62402344 C47.84973216 34.58797726 48.00937835 36.71307269 46.39868164 39.31542969 C43.43638161 42.93117826 41.72177008 44.40730795 37.13305664 45.18652344 C30.33380491 45.07646361 24.86789253 40.30053148 19.44555664 36.62402344 C18.19663355 35.79687427 16.94661548 34.97137624 15.69555664 34.14746094 C13.15850874 32.47267768 10.63245073 30.78296038 8.11352539 29.08105469 C5.74093483 27.48116847 3.3512483 25.9170191 0.93383789 24.38574219 C-0.13479492 23.70125 -1.20342773 23.01675781 -2.30444336 22.31152344 C-3.24803711 21.71726562 -4.19163086 21.12300781 -5.16381836 20.51074219 C-8.42393115 17.93781004 -10.20710454 15.45146372 -10.98803711 11.34277344 C-10.99475329 7.52798164 -10.73292049 5.01201719 -9.11694336 1.49902344 C-5.73992145 -0.9719682 -4.01716391 -0.55063929 0 0 Z " fill="#313C47" transform="translate(199.554443359375,93.3759765625)"/>
<path d="M0 0 C1.32260078 -0.00810448 1.32260078 -0.00810448 2.67192078 -0.01637268 C5.58565874 -0.02887697 8.49841189 -0.01235764 11.41210938 0.00561523 C13.43705294 0.00546029 15.4619968 0.003972 17.48693848 0.00120544 C21.73052076 -0.00017931 25.97376537 0.01239249 30.21728516 0.03515625 C35.6582975 0.06354096 41.09874869 0.06080451 46.53980255 0.04806614 C50.72109779 0.04111301 54.9022632 0.04889409 59.08354187 0.06132317 C61.08981326 0.06584121 63.09609856 0.06617139 65.10237122 0.06225777 C67.90577795 0.05934916 70.70840988 0.07583582 73.51171875 0.09765625 C74.75709663 0.09090378 74.75709663 0.09090378 76.02763367 0.08401489 C79.16319635 0.12459021 81.8577724 0.35120507 84.80236816 1.46446228 C86.25585938 3.50170898 86.25585938 3.50170898 86.25585938 12.50170898 C53.58585937 12.50170898 20.91585937 12.50170898 -12.74414062 12.50170898 C-12.74414062 4.50170898 -12.74414062 4.50170898 -11.29064941 2.0330658 C-7.6178289 -0.17560465 -4.16078308 -0.04845074 0 0 Z " fill="#2F3E48" transform="translate(183.744140625,147.498291015625)"/>
<path d="M0 0 C15.84 0 31.68 0 48 0 C48 59.4 48 118.8 48 180 C47.67 180 47.34 180 47 180 C46.67 121.59 46.34 63.18 46 3 C41.37319783 7.0484519 37.06894731 10.90172681 32.7890625 15.23046875 C22.49919593 25.40800054 22.49919593 25.40800054 18 26 C12.56593599 23.16975833 8.38338424 19.07507635 5 14 C4.8046875 10.86328125 4.8046875 10.86328125 4.875 7.3125 C4.89304687 6.13300781 4.91109375 4.95351562 4.9296875 3.73828125 C4.95289063 2.83464844 4.97609375 1.93101562 5 1 C3.35 1 1.7 1 0 1 C0 0.67 0 0.34 0 0 Z " fill="#AA9670" transform="translate(277,197)"/>
<path d="M0 0 C16.17 0 32.34 0 49 0 C49 0.33 49 0.66 49 1 C47.35 1.33 45.7 1.66 44 2 C43.90912109 3.37285156 43.90912109 3.37285156 43.81640625 4.7734375 C43.73261719 5.96195313 43.64882812 7.15046875 43.5625 8.375 C43.48128906 9.55835938 43.40007812 10.74171875 43.31640625 11.9609375 C43 15 43 15 42 17 C41.01 17 40.02 17 39 17 C38.7215625 17.8353125 38.7215625 17.8353125 38.4375 18.6875 C36.31897703 22.09555868 33.60955599 24.25420168 30 26 C25.49796513 25.54979651 22.8726466 22.05408215 19.8828125 18.921875 C18.02036939 17.02079199 16.08476292 15.29133654 14.0625 13.5625 C9.87485733 9.8902595 5.93838174 5.93838174 2 2 C1.67 41.27 1.34 80.54 1 121 C0.67 121 0.34 121 0 121 C0 81.07 0 41.14 0 0 Z " fill="#B49D72" transform="translate(113,197)"/>
<path d="M0 0 C40.26 0 80.52 0 122 0 C122 14.19 122 28.38 122 43 C95.6 43 69.2 43 42 43 C42 42.67 42 42.34 42 42 C68.07 42 94.14 42 121 42 C120.67 29.46 120.34 16.92 120 4 C119.34 4 118.68 4 118 4 C118 3.34 118 2.68 118 2 C116.0566552 2.24447876 116.0566552 2.24447876 114.0740509 2.49389648 C109.30237391 3.02144512 104.61167433 3.12864284 99.81518555 3.09765625 C98.9455719 3.09619598 98.07595825 3.09473572 97.17999268 3.0932312 C95.30745047 3.08945077 93.43491174 3.0833617 91.56238365 3.07516479 C88.58852294 3.06229137 85.61470737 3.05585732 82.64082336 3.05102539 C75.255032 3.03772094 67.86928375 3.01354256 60.48352051 2.98962402 C54.23456367 2.96979668 47.98562314 2.95419549 41.73664284 2.94406128 C38.82543089 2.93764052 35.91428744 2.92513276 33.00309753 2.91235352 C17.31716457 1.84008082 17.31716457 1.84008082 3 6 C2.60028342 8.30748036 2.60028342 8.30748036 2.7421875 10.97265625 C2.75636719 11.95427734 2.77054687 12.93589844 2.78515625 13.94726562 C2.81480469 14.97529297 2.84445312 16.00332031 2.875 17.0625 C2.91816299 19.09496914 2.95744168 21.12752579 2.9921875 23.16015625 C3.01651855 24.06386963 3.04084961 24.96758301 3.06591797 25.89868164 C3 28 3 28 2 29 C1.87494915 31.58549772 1.813952 34.14561411 1.79467773 36.73266602 C1.78477814 37.5423584 1.77487854 38.35205078 1.76467896 39.1862793 C1.73297013 41.87545805 1.70826965 44.5646545 1.68359375 47.25390625 C1.66303231 49.11336234 1.64203606 50.97281368 1.62062073 52.83226013 C1.56531634 57.73623815 1.5159441 62.64025893 1.46777344 67.54431152 C1.41761934 72.54455388 1.36190155 77.54473382 1.30664062 82.54492188 C1.19895679 92.36322799 1.09753468 102.18158819 1 112 C0.67 112 0.34 112 0 112 C0 75.04 0 38.08 0 0 Z " fill="#5C8F8E" transform="translate(346,196)"/>
<path d="M0 0 C3.6704337 1.53780601 5.96809071 3.75065042 8.73828125 6.578125 C9.64126953 7.49207031 10.54425781 8.40601563 11.47460938 9.34765625 C12.42094948 10.31473582 13.36691067 11.28218632 14.3125 12.25 C20.02408824 18.07556233 25.69253118 23.81482563 32 29 C30.20580415 32.91010957 27.76730285 35.27848131 24.5 38 C23.93756592 38.47203857 23.37513184 38.94407715 22.7956543 39.43041992 C10.13597137 49.80505988 -5.56183796 61.30629253 -21 67 C-21.99 66.67 -22.98 66.34 -24 66 C-19.30769231 61.30769231 -19.30769231 61.30769231 -15.875 60.5 C-13.59876637 60.11426598 -13.59876637 60.11426598 -12 57 C-10.515 56.505 -10.515 56.505 -9 56 C-8.34 56.33 -7.68 56.66 -7 57 C-6.67 55.68 -6.34 54.36 -6 53 C-4.88625 52.79375 -3.7725 52.5875 -2.625 52.375 C1.26599195 51.38371699 1.26599195 51.38371699 2.4375 47.875 C2.623125 46.92625 2.80875 45.9775 3 45 C3.66 45 4.32 45 5 45 C5 45.66 5 46.32 5 47 C6.1446875 46.505 6.1446875 46.505 7.3125 46 C10 45 10 45 13 45 C12.505 44.13375 12.505 44.13375 12 43.25 C11 41 11 41 11 37 C12.33333333 37.66666667 13.66666667 38.33333333 15 39 C17.66057656 37.7536564 17.66057656 37.7536564 20 36 C20 35.34 20 34.68 20 34 C20.33 33.360625 20.66 32.72125 21 32.0625 C22.21813675 29.9321163 22.21813675 29.9321163 22 27 C21.01 27.33 20.02 27.66 19 28 C19 26.68 19 25.36 19 24 C18.7018576 22.65835921 18.37756808 21.32148827 18 20 C16.68 20 15.36 20 14 20 C12.65835921 19.7018576 11.32148827 19.37756808 10 19 C10.33 17.02 10.66 15.04 11 13 C9.02 12.67 7.04 12.34 5 12 C5 10.35 5 8.7 5 7 C4.360625 7.495 3.72125 7.99 3.0625 8.5 C1 10 1 10 0 10 C-0.99 10.33 -1.98 10.66 -3 11 C-3.66 11 -4.32 11 -5 11 C-5 10.34 -5 9.68 -5 9 C-5.598125 9.495 -6.19625 9.99 -6.8125 10.5 C-9 12 -9 12 -12 12 C-12 11.34 -12 10.68 -12 10 C-10.23947136 8.41929472 -8.41580202 6.90833714 -6.5625 5.4375 C-5.55316406 4.63183594 -4.54382813 3.82617188 -3.50390625 2.99609375 C-2.67761719 2.33738281 -1.85132813 1.67867188 -1 1 C-0.67 0.67 -0.34 0.34 0 0 Z M23 28 C23.33 28.66 23.66 29.32 24 30 C24.33 29.34 24.66 28.68 25 28 C24.34 28 23.68 28 23 28 Z " fill="#313E47" transform="translate(350,388)"/>
<path d="M0 0 C0.99 0.33 1.98 0.66 3 1 C2.01 2.485 2.01 2.485 1 4 C0.80071022 6.4888603 0.80071022 6.4888603 2 9 C4.21590156 10.81110223 6.26840081 12.2671143 8.6875 13.75 C9.35797363 14.17829102 10.02844727 14.60658203 10.71923828 15.04785156 C12.11553193 15.93809931 13.51600212 16.82182769 14.92041016 17.69921875 C17.49789788 19.3114346 20.05188322 20.95842046 22.60498047 22.60888672 C23.77717049 23.3645855 24.95195451 24.11627699 26.12939453 24.86376953 C30.21383655 27.45827457 34.16170497 30.20222669 38.03515625 33.1015625 C40.02502201 34.18545073 40.02502201 34.18545073 42.5390625 33.93359375 C45.71904485 32.72721949 46.56758291 31.31864217 48.3125 28.4375 C48.82425781 27.61121094 49.33601563 26.78492187 49.86328125 25.93359375 C50.23839844 25.29550781 50.61351562 24.65742187 51 24 C51.495 25.485 51.495 25.485 52 27 C50.625 29.5625 50.625 29.5625 49 32 C47.75453595 34.49092811 48.2232422 35.41080733 49 38 C48.01 38.495 48.01 38.495 47 39 C47 38.34 47 37.68 47 37 C46.01 37.33 45.02 37.66 44 38 C44 37.34 44 36.68 44 36 C43.01 36.495 43.01 36.495 42 37 C42 37.99 42 38.98 42 40 C41.34 40 40.68 40 40 40 C40.495 42.475 40.495 42.475 41 45 C40.52546387 44.63213379 40.05092773 44.26426758 39.56201172 43.88525391 C34.58152973 40.07992821 29.45402037 36.66867335 24.125 33.375 C14.61954449 27.44082724 5.29222375 21.26142676 -4 15 C-3.01 13.35 -2.02 11.7 -1 10 C-1.66 10 -2.32 10 -3 10 C-2.21302675 6.58978257 -1.12880057 3.31114834 0 0 Z " fill="#D8DBDF" transform="translate(206,80)"/>
<path d="M0 0 C3.73281303 1.36469333 6.85941748 3.07029674 10.16796875 5.265625 C11.14443359 5.90886719 12.12089844 6.55210938 13.12695312 7.21484375 C14.13693359 7.88644531 15.14691406 8.55804688 16.1875 9.25 C23.36503027 14.00388797 30.5739834 18.64198502 38 23 C37.01 23.33 36.02 23.66 35 24 C34.505 25.485 34.505 25.485 34 27 C33.505 26.01 33.505 26.01 33 25 C32.34 25 31.68 25 31 25 C31.495 25.99 31.495 25.99 32 27 C34.32156597 27.40729228 36.6568787 27.74438677 39 28 C38.0409375 28.433125 38.0409375 28.433125 37.0625 28.875 C34.84793921 29.82823451 34.84793921 29.82823451 34 32 C33.5153125 31.45859375 33.030625 30.9171875 32.53125 30.359375 C29.13509481 27.19382294 25.38112224 24.7816562 21.5 22.25 C19.88020159 21.18230189 18.26040994 20.11459354 16.640625 19.046875 C15.84978516 18.52802734 15.05894531 18.00917969 14.24414062 17.47460938 C11.23599989 15.49798078 8.242599 13.50007873 5.25 11.5 C3.92742187 10.61828125 3.92742187 10.61828125 2.578125 9.71875 C-0.28125 7.8125 -3.140625 5.90625 -6 4 C-5.01 3.67 -4.02 3.34 -3 3 C-2.67 3.33 -2.34 3.66 -2 4 C-1.34 2.68 -0.68 1.36 0 0 Z " fill="#D6D9DC" transform="translate(243,42)"/>
<path d="M0 0 C3.81271791 3.17726492 7.45516471 6.399999 10.9375 9.9375 C14.78305386 13.83532353 18.78611989 17.50318773 23 21 C23.68707031 21.57234375 24.37414062 22.1446875 25.08203125 22.734375 C25.71496094 23.15203125 26.34789062 23.5696875 27 24 C31.07470254 23.05968403 33.91135875 20.74545889 37 18 C37.33 17.34 37.66 16.68 38 16 C38.99 16 39.98 16 41 16 C41.09087891 14.39318359 41.09087891 14.39318359 41.18359375 12.75390625 C41.26798537 11.35675609 41.35263406 9.95962143 41.4375 8.5625 C41.47681641 7.85544922 41.51613281 7.14839844 41.55664062 6.41992188 C41.88671875 1.11328125 41.88671875 1.11328125 43 0 C44.74765452 -0.09969841 46.4995103 -0.12968045 48.25 -0.125 C49.20390625 -0.12757813 50.1578125 -0.13015625 51.140625 -0.1328125 C53.86463928 -0.00628725 56.34675009 0.38994619 59 1 C55.8250906 2.9078584 53.89414789 3.1609041 50.25 2.625 C49.45078125 2.51414063 48.6515625 2.40328125 47.828125 2.2890625 C47.22484375 2.19367188 46.6215625 2.09828125 46 2 C46.05800781 2.80824219 46.11601562 3.61648437 46.17578125 4.44921875 C46.54876306 13.28355934 46.54876306 13.28355934 43.75 16.9375 C42.8425 17.618125 41.935 18.29875 41 19 C39.64444707 20.64864545 38.30368347 22.31003995 37 24 C37.66 24.33 38.32 24.66 39 25 C38.21625 24.95875 37.4325 24.9175 36.625 24.875 C33.83883881 24.71271266 33.83883881 24.71271266 32 27 C28.79981551 26.70368662 25.79033357 26.21360367 22.6875 25.375 C20.89389066 24.79030774 20.89389066 24.79030774 19 26 C19 24.68 19 23.36 19 22 C18.34 22 17.68 22 17 22 C16.67 21.34 16.34 20.68 16 20 C15.34 20 14.68 20 14 20 C13.67 19.01 13.34 18.02 13 17 C12.01 17 11.02 17 10 17 C10 16.01 10 15.02 10 14 C8.68 14 7.36 14 6 14 C6 12.68 6 11.36 6 10 C5.01 10 4.02 10 3 10 C2.67 11.65 2.34 13.3 2 15 C1.67 15 1.34 15 1 15 C0.67 10.05 0.34 5.1 0 0 Z " fill="#3F7767" transform="translate(114,198)"/>
<path d="M0 0 C0.66 0 1.32 0 2 0 C2.2475 0.639375 2.495 1.27875 2.75 1.9375 C3.81562433 4.18741541 3.81562433 4.18741541 6.125 4.75 C6.74375 4.8325 7.3625 4.915 8 5 C7.67 5.99 7.34 6.98 7 8 C7.66 8 8.32 8 9 8 C9.33 9.32 9.66 10.64 10 12 C11.32 12.33 12.64 12.66 14 13 C14 13.99 14 14.98 14 16 C14.66 16 15.32 16 16 16 C16.103125 16.61875 16.20625 17.2375 16.3125 17.875 C16.87525373 20.36526484 16.87525373 20.36526484 20 22 C20 23.66666667 20 25.33333333 20 27 C20.99 27.66 21.98 28.32 23 29 C23 29.66 23 30.32 23 31 C23.66 31 24.32 31 25 31 C25.33 31.99 25.66 32.98 26 34 C28.32363416 36.24064723 29.49490144 36.96556146 32.75 37.1875 C33.4925 37.125625 34.235 37.06375 35 37 C36.33332095 39.6666419 35.67102033 41.16680303 35 44 C36.65 43.34 38.3 42.68 40 42 C40 42.66 40 43.32 40 44 C40.99 44.495 40.99 44.495 42 45 C42.33 44.01 42.66 43.02 43 42 C44.32 42 45.64 42 47 42 C44.89285714 47.99725275 44.89285714 47.99725275 42 50 C37.48668363 49.34760391 34.92062302 46.48067234 31.75 43.4375 C31.1722583 42.89174316 30.5945166 42.34598633 29.99926758 41.78369141 C28.3254127 40.19670185 26.66200202 38.59938342 25 37 C23.83791016 35.89978516 23.83791016 35.89978516 22.65234375 34.77734375 C15.30868891 27.66728429 9.32526946 19.82655131 4 11.125 C3.60176025 10.48232178 3.20352051 9.83964355 2.79321289 9.17749023 C0.75650884 5.75660092 0 4.07999335 0 0 Z " fill="#2C4E54" transform="translate(360,348)"/>
<path d="M0 0 C-0.969375 0.45375 -1.93875 0.9075 -2.9375 1.375 C-6.07079582 2.65786221 -6.07079582 2.65786221 -7 5 C-6.34 5 -5.68 5 -5 5 C-5.33 5.99 -5.66 6.98 -6 8 C-7.44632812 7.93039063 -7.44632812 7.93039063 -8.921875 7.859375 C-10.18515625 7.82328125 -11.4484375 7.7871875 -12.75 7.75 C-14.00296875 7.70359375 -15.2559375 7.6571875 -16.546875 7.609375 C-20.05416386 7.70445973 -20.05416386 7.70445973 -22.453125 9.890625 C-24.19712122 11.83283896 -24.19712122 11.83283896 -24 14 C-26.8125 15.125 -26.8125 15.125 -30 16 C-30.99 15.34 -31.98 14.68 -33 14 C-33 14.66 -33 15.32 -33 16 C-34.62626404 17.38232443 -36.2925002 18.71937515 -38 20 C-37.67 21.32 -37.34 22.64 -37 24 C-37.721875 23.938125 -38.44375 23.87625 -39.1875 23.8125 C-42.60976367 24.04065091 -44.33155859 24.86524687 -47 27 C-47 28.32 -47 29.64 -47 31 C-50.28976808 32.09658936 -51.71303767 31.79953138 -55 31 C-55 30.34 -55 29.68 -55 29 C-55.61875 28.95875 -56.2375 28.9175 -56.875 28.875 C-57.926875 28.441875 -57.926875 28.441875 -59 28 C-60.25 24.9375 -60.25 24.9375 -61 22 C-57.31245243 22.49831724 -55.39509338 23.10067643 -53 26 C-49.24791697 24.72365039 -47.15971592 23.40660365 -44.5625 20.4375 C-36.24746082 11.85774984 -12.37729144 -4.95091657 0 0 Z " fill="#307673" transform="translate(271,200)"/>
<path d="M0 0 C17.82 0 35.64 0 54 0 C54 13.53 54 27.06 54 41 C37.17 41 20.34 41 3 41 C3 40.34 3 39.68 3 39 C6.66824419 37.77725194 9.78697228 38.16423878 13.5625 38.5 C18.40959704 39.16019796 18.40959704 39.16019796 23 38 C23 38.66 23 39.32 23 40 C24.05574219 39.89171875 24.05574219 39.89171875 25.1328125 39.78125 C33.11833184 39.03065288 40.97987589 38.91979876 49 39 C49 34.71 49 30.42 49 26 C49.66 25.67 50.32 25.34 51 25 C51 17.41 51 9.82 51 2 C34.17 1.67 17.34 1.34 0 1 C0 0.67 0 0.34 0 0 Z " fill="#366666" transform="translate(389,274)"/>
<path d="M0 0 C3.78335703 1.26111901 4.40206288 2.67627743 6.625 5.9375 C12.20555112 13.82618347 18.31742609 21.09032776 26 27 C24.81074435 36.31017277 16.30469727 46.25226995 10 53 C9.34 53 8.68 53 8 53 C8.42729014 50.52171717 8.71825127 49.27047878 10.5625 47.5 C12.46127024 45.86494057 12.46127024 45.86494057 12 42 C13.175625 41.4121875 13.175625 41.4121875 14.375 40.8125 C17.47604353 38.67130328 17.48900107 37.99246204 18.1875 34.4375 C18.30480469 33.65246094 18.42210937 32.86742187 18.54296875 32.05859375 C19 30 19 30 21 28 C20.67 27.67 20.34 27.34 20 27 C19.34 27.66 18.68 28.32 18 29 C17.67 27.68 17.34 26.36 17 25 C17.66 25 18.32 25 19 25 C19 24.34 19 23.68 19 23 C17.6078125 23.309375 17.6078125 23.309375 16.1875 23.625 C13 24 13 24 10 22 C9.3125 18.875 9.3125 18.875 9 16 C6.36 15.67 3.72 15.34 1 15 C1.66 12.03 2.32 9.06 3 6 C2.34 6 1.68 6 1 6 C0.67 4.02 0.34 2.04 0 0 Z " fill="#2D5659" transform="translate(399,336)"/>
<path d="M0 0 C0.33 0 0.66 0 1 0 C1 15.51 1 31.02 1 47 C0.67 47 0.34 47 0 47 C-0.33 35.12 -0.66 23.24 -1 11 C-1.99 11.66 -2.98 12.32 -4 13 C-4 12.34 -4 11.68 -4 11 C-6.50447863 12.10057876 -6.50447863 12.10057876 -9 14 C-9.67939174 15.99571323 -10.34561559 17.99594773 -11 20 C-15.21052632 24 -15.21052632 24 -18 24 C-18 24.66 -18 25.32 -18 26 C-19.76913824 26.22226864 -21.54044371 26.42733873 -23.3125 26.625 C-24.29863281 26.74101562 -25.28476562 26.85703125 -26.30078125 26.9765625 C-29 27 -29 27 -32 25 C-32 24.34 -32 23.68 -32 23 C-32.804375 22.7525 -33.60875 22.505 -34.4375 22.25 C-37 21 -37 21 -37.8125 18.875 C-37.874375 18.25625 -37.93625 17.6375 -38 17 C-36.02 17.99 -36.02 17.99 -34 19 C-34 19.66 -34 20.32 -34 21 C-31.36415075 22.4120621 -28.98415905 23.63675967 -26 24 C-24.10553291 22.90154533 -24.10553291 22.90154533 -22.375 21.125 C-21.6840625 20.47917969 -20.993125 19.83335937 -20.28125 19.16796875 C-19.5284375 18.45253906 -18.775625 17.73710937 -18 17 C-16.29444326 15.47605347 -14.58604624 13.95528047 -12.875 12.4375 C-9.99170214 9.84696777 -7.19419948 7.22369653 -4.5 4.4375 C-2 2 -2 2 0 2 C0 1.34 0 0.68 0 0 Z " fill="#2B6F6D" transform="translate(323,198)"/>
<path d="M0 0 C0.33 0 0.66 0 1 0 C1.00238835 0.62024992 1.00477671 1.24049984 1.00723743 1.87954521 C1.06685553 17.10208153 1.1426939 32.32444807 1.23571491 47.54681206 C1.28032746 54.90879747 1.3198172 62.2707382 1.34643555 69.6328125 C1.36970022 76.06348887 1.40340222 82.4940196 1.44870156 88.92457974 C1.47225899 92.31695396 1.48966762 95.70906134 1.49761391 99.10152817 C1.54780777 118.58978294 2.5925792 137.77962124 6 157 C5.01 156.67 4.02 156.34 3 156 C0.42114783 143.50633753 -0.152067 131.13769683 -0.11352539 118.40698242 C-0.11367142 117.11761276 -0.11381744 115.8282431 -0.1139679 114.49980164 C-0.11425149 111.00893283 -0.10842642 107.51809931 -0.10139394 104.02723861 C-0.09508667 100.36242467 -0.09455083 96.69760967 -0.09336853 93.03279114 C-0.09027675 86.11293638 -0.08209276 79.19309766 -0.07201904 72.27324992 C-0.06079056 64.38676458 -0.05533058 56.50027842 -0.05032361 48.61378706 C-0.03990804 32.40918202 -0.02235085 16.20459307 0 0 Z " fill="#B2D3D3" transform="translate(33,163)"/>
<path d="M0 0 C0.33 0 0.66 0 1 0 C0.99214478 1.748573 0.99214478 1.748573 0.98413086 3.5324707 C0.96604129 7.85424025 0.95455347 12.17600644 0.94506836 16.49780273 C0.94003721 18.36890221 0.93321165 20.23999775 0.92456055 22.11108398 C0.91244171 24.79932628 0.90675953 27.48751664 0.90234375 30.17578125 C0.89718246 31.01337479 0.89202118 31.85096832 0.88670349 32.71394348 C0.88637936 36.06375742 0.93315485 38.79946456 2 42 C0.05011924 43.94988076 -3.68603391 43.17425902 -6.34960938 43.18945312 C-7.50321709 43.20189308 -7.50321709 43.20189308 -8.68013 43.21458435 C-10.35527964 43.23202221 -12.03045417 43.2471787 -13.7056427 43.26036072 C-16.35245269 43.28131891 -18.99913731 43.30834641 -21.64587402 43.33703613 C-28.21992821 43.40701355 -34.79407135 43.46632623 -41.3682251 43.52606201 C-46.91943101 43.5769057 -52.47056987 43.6317071 -58.02168274 43.69187927 C-60.63695308 43.71855319 -63.25222931 43.73930778 -65.86755371 43.7598877 C-67.46183573 43.77648374 -69.05611492 43.79335496 -70.65039062 43.81054688 C-71.38393265 43.81473129 -72.11747467 43.81891571 -72.87324524 43.82322693 C-76.22230887 43.5742585 -76.22230887 43.5742585 -79 45 C-79.15873955 47.21687994 -79.25133837 49.43855298 -79.31640625 51.66015625 C-79.33718735 52.32462265 -79.35796844 52.98908905 -79.37937927 53.6736908 C-79.44493658 55.80318543 -79.50378785 57.93280668 -79.5625 60.0625 C-79.60567939 61.50326847 -79.64929349 62.94402399 -79.69335938 64.38476562 C-79.80062393 67.9230404 -79.90187371 71.46145869 -80 75 C-80.33 75 -80.66 75 -81 75 C-81 64.11 -81 53.22 -81 42 C-54.6 42 -28.2 42 -1 42 C-1.03960516 28.55185995 -1.03960516 28.55185995 -1.09008789 15.10375977 C-1.093007 13.42464257 -1.09555557 11.74552467 -1.09765625 10.06640625 C-1.10277222 9.18625854 -1.10788818 8.30611084 -1.11315918 7.39929199 C-1.11346896 5.26586121 -1.06244067 3.13251686 -1 1 C-0.67 0.67 -0.34 0.34 0 0 Z " fill="#D9EEEE" transform="translate(469,197)"/>
<path d="M0 0 C0.33 0 0.66 0 1 0 C1 4.29 1 8.58 1 13 C1.66 13.33 2.32 13.66 3 14 C2.67 14.99 2.34 15.98 2 17 C2.33 17.33 2.66 17.66 3 18 C3.23880597 25.52238806 3.23880597 25.52238806 2 28 C1.90983623 29.60354452 1.88243925 31.21082222 1.88647461 32.81689453 C1.88655014 33.81778107 1.88662567 34.8186676 1.88670349 35.84988403 C1.89186478 36.93325043 1.89702606 38.01661682 1.90234375 39.1328125 C1.9037587 40.23978485 1.90517365 41.3467572 1.90663147 42.48727417 C1.91224228 46.03320993 1.92479663 49.57908323 1.9375 53.125 C1.94251361 55.52473867 1.94707675 57.92447833 1.95117188 60.32421875 C1.96221522 66.21616725 1.9789639 72.10807916 2 78 C2.66 78 3.32 78 4 78 C4.495 77.01 4.495 77.01 5 76 C5.99 77.65 6.98 79.3 8 81 C8.99 80.505 8.99 80.505 10 80 C10 80.66 10 81.32 10 82 C10.66 82.33 11.32 82.66 12 83 C10.56260487 83.02712066 9.12506137 83.04645067 7.6875 83.0625 C6.88699219 83.07410156 6.08648437 83.08570313 5.26171875 83.09765625 C3 83 3 83 0 82 C0 54.94 0 27.88 0 0 Z " fill="#263A3F" transform="translate(198,317)"/>
<path d="M0 0 C2.42446256 3.63669383 2.27577377 6.29670305 2.24291992 10.49731445 C2.24481827 11.25864685 2.24671661 12.01997925 2.24867249 12.80438232 C2.25238038 15.3241197 2.24167279 17.84356941 2.23046875 20.36328125 C2.22927644 22.11581895 2.2288239 23.8683573 2.2290802 25.62089539 C2.22751511 29.29702751 2.21922585 32.97306229 2.20581055 36.64916992 C2.1888583 41.35336854 2.1849952 46.05745979 2.18575573 50.76168537 C2.18548323 54.38285847 2.17998858 58.00400825 2.17275429 61.62517357 C2.16957892 63.35905976 2.16760286 65.0929486 2.16686058 66.82683754 C2.16468286 69.25610431 2.15590677 71.68525936 2.14526367 74.11450195 C2.14571686 74.82692551 2.14617004 75.53934906 2.14663696 76.27336121 C2.12106138 80.28289984 1.77046183 84.06521577 1 88 C1.66 88 2.32 88 3 88 C3 88.66 3 89.32 3 90 C4.98 89.505 4.98 89.505 7 89 C7 89.99 7 90.98 7 92 C4.35261084 93.4606285 3.10551666 94 0 94 C0 62.98 0 31.96 0 0 Z " fill="#2D4C51" transform="translate(282,304)"/>
<path d="M0 0 C0.33 0 0.66 0 1 0 C1.74078689 5.27941113 2.11929006 10.33835351 2.09765625 15.68188477 C2.09546585 16.7640477 2.09546585 16.7640477 2.0932312 17.86807251 C2.08945436 19.41924804 2.08336927 20.9704194 2.07516479 22.52157784 C2.0622901 24.98151133 2.05585761 27.44139027 2.05102539 29.90135193 C2.03965253 35.12175923 2.02040899 40.34212122 2 45.5625 C1.9763374 51.61956919 1.95596856 57.67661228 1.94406128 63.73371696 C1.93761523 66.14824309 1.92511009 68.56268831 1.91235352 70.97718811 C1.90871865 72.46729463 1.90536721 73.95740188 1.90234375 75.44750977 C1.89710693 76.74020279 1.89187012 78.03289581 1.88647461 79.36476135 C1.7086315 85.60994939 1.7086315 85.60994939 4 91 C4.04063832 92.66617115 4.042721 94.33388095 4 96 C4.66 96.33 5.32 96.66 6 97 C5.01 97.99 5.01 97.99 4 99 C3.01 99 2.02 99 1 99 C-0.32552133 88.5854848 -0.1271886 78.15152045 -0.09765625 67.67578125 C-0.09578803 65.71852149 -0.09436603 63.76126125 -0.09336853 61.80400085 C-0.08957519 56.68639809 -0.07977256 51.56882432 -0.06866455 46.45123291 C-0.05838152 41.21553947 -0.05385623 35.97984128 -0.04882812 30.74414062 C-0.03814704 20.49608111 -0.02110946 10.24804298 0 0 Z " fill="#3A7A74" transform="translate(34,200)"/>
<path d="M0 0 C0.66 0.33 1.32 0.66 2 1 C1.99476318 1.86165771 1.98952637 2.72331543 1.98413086 3.61108398 C1.96695396 6.8483861 1.95448469 10.08566476 1.94506836 13.32299805 C1.94008043 14.71656057 1.93328769 16.11011798 1.92456055 17.50366211 C1.83797021 26.97492393 1.83797021 26.97492393 2.56640625 36.41015625 C2.70949219 37.59480469 2.85257812 38.77945313 3 40 C1.33376422 41.66623578 -0.68758912 41.16740691 -2.97875977 41.20532227 C-4.03978409 41.22526749 -5.10080841 41.24521271 -6.19398499 41.26576233 C-7.348134 41.28247482 -8.50228302 41.29918732 -9.69140625 41.31640625 C-11.4538694 41.3475779 -11.4538694 41.3475779 -13.25193787 41.37937927 C-17.02206324 41.44500124 -20.79226082 41.5038183 -24.5625 41.5625 C-27.11133573 41.6056732 -29.66016403 41.64928708 -32.20898438 41.69335938 C-38.47257892 41.80069545 -44.73624601 41.9024379 -51 42 C-51 41.34 -51 40.68 -51 40 C-34.17 40 -17.34 40 0 40 C0 26.8 0 13.6 0 0 Z " fill="#C5D9DB" transform="translate(443,275)"/>
<path d="M0 0 C0.33 0.66 0.66 1.32 1 2 C12.88 2.33 24.76 2.66 37 3 C37 3.33 37 3.66 37 4 C30.78668175 5.11857206 24.73747636 5.08030563 18.4375 5 C16.41542029 4.9743228 14.39327437 4.95334988 12.37109375 4.9375 C11.48349365 4.92589844 10.59589355 4.91429687 9.68139648 4.90234375 C6.42798905 4.96337931 6.42798905 4.96337931 1 6 C1 18.21 1 30.42 1 43 C-1.23591638 38.52816725 -1.2736464 35.18381352 -1.23046875 30.33203125 C-1.23001053 29.49661301 -1.22955231 28.66119476 -1.2290802 27.80046082 C-1.22606502 26.0395668 -1.21820072 24.27867527 -1.20581055 22.51782227 C-1.18749605 19.81191654 -1.18530135 17.106352 -1.18554688 14.40039062 C-1.18063366 12.69010119 -1.1748062 10.97981408 -1.16796875 9.26953125 C-1.16685593 8.45603714 -1.1657431 7.64254303 -1.16459656 6.80439758 C-1.11606674 1.11606674 -1.11606674 1.11606674 0 0 Z " fill="#389187" transform="translate(35,161)"/>
<path d="M0 0 C8.37896748 3.92130911 15.96205594 7.87438202 23 14 C22.34 15.65 21.68 17.3 21 19 C20.1028125 18.4740625 20.1028125 18.4740625 19.1875 17.9375 C16.89186786 16.66695302 16.89186786 16.66695302 14 18 C13.67 15.36 13.34 12.72 13 10 C11.02 10.33 9.04 10.66 7 11 C6.6596875 9.6078125 6.6596875 9.6078125 6.3125 8.1875 C4.77571295 4.45530287 3.47241055 3.8275845 0 2 C0 1.34 0 0.68 0 0 Z " fill="#2F7370" transform="translate(187,205)"/>
<path d="M0 0 C3.09141177 0.61246564 5.18772813 1.60869659 7.765625 3.40625 C8.48379395 3.89899414 9.20196289 4.39173828 9.94189453 4.89941406 C10.70356934 5.42760742 11.46524414 5.95580078 12.25 6.5 C20.57805234 12.17720887 29.13399409 17.21670526 38 22 C37.01 22.66 36.02 23.32 35 24 C34.505 22.515 34.505 22.515 34 21 C33.32453125 20.90203125 32.6490625 20.8040625 31.953125 20.703125 C26.61723581 19.80866959 23.60477091 19.22628314 20 15 C17.72429651 13.53598069 15.3854277 12.28446107 13 11 C13 10.34 13 9.68 13 9 C12.01 9.33 11.02 9.66 10 10 C7.3125 8.75 7.3125 8.75 5 7 C5 6.01 5 5.02 5 4 C3.35 4 1.7 4 0 4 C-0.33 3.34 -0.66 2.68 -1 2 C-0.67 1.34 -0.34 0.68 0 0 Z " fill="#2E4A4F" transform="translate(133,396)"/>
<path d="M0 0 C0.33 0 0.66 0 1 0 C1 3.96 1 7.92 1 12 C-15.5 12 -32 12 -49 12 C-49 11.34 -49 10.68 -49 10 C-45.33175581 8.77725194 -42.21302772 9.16423878 -38.4375 9.5 C-33.59040296 10.16019796 -33.59040296 10.16019796 -29 9 C-29 9.66 -29 10.32 -29 11 C-19.76 10.34 -10.52 9.68 -1 9 C-0.67 6.03 -0.34 3.06 0 0 Z " fill="#2D5859" transform="translate(441,303)"/>
<path d="M0 0 C0.99 0.33 1.98 0.66 3 1 C3 2.65 3 4.3 3 6 C0.03 6 -2.94 6 -6 6 C-7.47912025 8.9582405 -6.66156962 10.7748481 -6 14 C-6.66 13.34 -7.32 12.68 -8 12 C-8.5775 12.350625 -9.155 12.70125 -9.75 13.0625 C-12.40158116 14.16732548 -13.32733014 13.80180096 -16 13 C-16.99 13.495 -16.99 13.495 -18 14 C-18.99 13.34 -19.98 12.68 -21 12 C-19.35451172 11.07767578 -19.35451172 11.07767578 -17.67578125 10.13671875 C-16.22133265 9.32035083 -14.76690677 8.50394244 -13.3125 7.6875 C-12.59126953 7.28337891 -11.87003906 6.87925781 -11.12695312 6.46289062 C-10.42119141 6.06650391 -9.71542969 5.67011719 -8.98828125 5.26171875 C-8.29943848 4.87677246 -7.6105957 4.49182617 -6.90087891 4.09521484 C-5.29000507 3.16709 -3.72305106 2.16337828 -2.16796875 1.14453125 C-1.45253906 0.76683594 -0.73710937 0.38914062 0 0 Z " fill="#353F48" transform="translate(333,402)"/>
<path d="M0 0 C15.51 0 31.02 0 47 0 C46 3 46 3 43.9375 4.1875 C43.298125 4.455625 42.65875 4.72375 42 5 C42 3.68 42 2.36 42 1 C30.12 1 18.24 1 6 1 C6.33 5.29 6.66 9.58 7 14 C7.66 14 8.32 14 9 14 C9.66 15.65 10.32 17.3 11 19 C7.83884224 17.63016497 7.0072908 17.0109362 5 14 C4.8046875 10.86328125 4.8046875 10.86328125 4.875 7.3125 C4.89304687 6.13300781 4.91109375 4.95351562 4.9296875 3.73828125 C4.95289063 2.83464844 4.97609375 1.93101562 5 1 C3.35 1 1.7 1 0 1 C0 0.67 0 0.34 0 0 Z " fill="#AE9B7B" transform="translate(277,197)"/>
<path d="M0 0 C15.84 0 31.68 0 48 0 C48 0.33 48 0.66 48 1 C46.35 1.33 44.7 1.66 43 2 C42.90912109 3.37285156 42.90912109 3.37285156 42.81640625 4.7734375 C42.73261719 5.96195313 42.64882812 7.15046875 42.5625 8.375 C42.48128906 9.55835938 42.40007812 10.74171875 42.31640625 11.9609375 C42 15 42 15 41 17 C40.34 17 39.68 17 39 17 C39.33 15.68 39.66 14.36 40 13 C40 9.04 40 5.08 40 1 C28.45 1 16.9 1 5 1 C4.67 2.32 4.34 3.64 4 5 C2.68 3.35 1.36 1.7 0 0 Z " fill="#AF9B77" transform="translate(114,197)"/>
<path d="M0 0 C1.5625 1.5625 1.5625 1.5625 3 4 C2.70764733 6.33882138 2.37400786 8.67284 2 11 C2.91568906 13.25132517 2.91568906 13.25132517 4 15 C3.67 15.66 3.34 16.32 3 17 C-3.09411765 14.85882353 -3.09411765 14.85882353 -5 12 C-4.87167015 7.38012536 -2.33710717 3.84491824 0 0 Z " fill="#373F4A" transform="translate(211,76)"/>
<path d="M0 0 C1.32 0.66 2.64 1.32 4 2 C3.01 2.99 2.02 3.98 1 5 C1.66 5 2.32 5 3 5 C3 5.66 3 6.32 3 7 C5.97 7.33 8.94 7.66 12 8 C12 10.64 12 13.28 12 16 C7.86186295 15.46823005 5.72917682 13.22067834 2.75 10.4375 C1.85796875 9.61121094 0.9659375 8.78492188 0.046875 7.93359375 C-0.62859375 7.29550781 -1.3040625 6.65742188 -2 6 C-1.34 4.02 -0.68 2.04 0 0 Z " fill="#334F56" transform="translate(144,360)"/>
<path d="M0 0 C5.28 0 10.56 0 16 0 C16.33 0.66 16.66 1.32 17 2 C15.75283203 2.07347656 15.75283203 2.07347656 14.48046875 2.1484375 C13.39378906 2.22320312 12.30710937 2.29796875 11.1875 2.375 C10.10855469 2.44460937 9.02960938 2.51421875 7.91796875 2.5859375 C4.81373814 2.81195733 4.81373814 2.81195733 2 5 C1.58390728 7.32300384 1.58390728 7.32300384 1.70703125 10.0078125 C1.71669922 10.99394531 1.72636719 11.98007813 1.73632812 12.99609375 C1.76146484 14.02863281 1.78660156 15.06117188 1.8125 16.125 C1.82603516 17.16527344 1.83957031 18.20554688 1.85351562 19.27734375 C1.88894772 21.85207627 1.93834779 24.4257833 2 27 C1.34 27.33 0.68 27.66 0 28 C0 18.76 0 9.52 0 0 Z " fill="#317776" transform="translate(347,197)"/>
<path d="M0 0 C4.28806873 0.47645208 6.26647487 1.65902484 9 5 C9 5.66 9 6.32 9 7 C8.34 7 7.68 7 7 7 C7 7.66 7 8.32 7 9 C7.99 9.33 8.98 9.66 10 10 C7.8125 10.75 7.8125 10.75 5 11 C2.1875 9.25 2.1875 9.25 0 7 C0 6.01 0 5.02 0 4 C-0.66 3.67 -1.32 3.34 -2 3 C-1.34 2.01 -0.68 1.02 0 0 Z " fill="#DDDFE1" transform="translate(235,109)"/>
<path d="M0 0 C0.33 0 0.66 0 1 0 C1.02914348 4.20831868 1.04684712 8.41661122 1.0625 12.625 C1.07087891 13.81480469 1.07925781 15.00460937 1.08789062 16.23046875 C1.09111328 17.38417969 1.09433594 18.53789062 1.09765625 19.7265625 C1.10289307 20.78439941 1.10812988 21.84223633 1.11352539 22.93212891 C0.99875578 26.03362346 0.57696282 28.95347657 0 32 C0.66 32 1.32 32 2 32 C2 32.66 2 33.32 2 34 C3.98 33.505 3.98 33.505 6 33 C6 33.99 6 34.98 6 36 C3.35261084 37.4606285 2.10551666 38 -1 38 C-1.02492452 33.87403297 -1.04296521 29.74809578 -1.05493164 25.62207031 C-1.05992616 24.22167191 -1.06672408 22.82127863 -1.07543945 21.42089844 C-1.16225376 7.101645 -1.16225376 7.101645 0 0 Z " fill="#2D4348" transform="translate(283,360)"/>
<path d="M0 0 C0.33 0.99 0.66 1.98 1 3 C-4.33333333 5.66666667 -9.66666667 8.33333333 -15 11 C-15.67836914 11.37012207 -16.35673828 11.74024414 -17.05566406 12.12158203 C-19 13 -19 13 -22 13 C-22 12.34 -22 11.68 -22 11 C-21.38125 10.71125 -20.7625 10.4225 -20.125 10.125 C-17.86674235 9.06279958 -17.86674235 9.06279958 -16 7 C-12.29903544 4.42988573 -9.39195522 3.73199254 -5 3 C-2.20102057 1.53888984 -2.20102057 1.53888984 0 0 Z " fill="#2C4045" transform="translate(313,381)"/>
<path d="M0 0 C0.99 0.495 0.99 0.495 2 1 C2.185625 1.9590625 2.185625 1.9590625 2.375 2.9375 C2.684375 3.9584375 2.684375 3.9584375 3 5 C3.65097656 5.2784375 4.30195312 5.556875 4.97265625 5.84375 C7 7 7 7 7.72265625 9.12890625 C7.83480469 9.93199219 7.94695312 10.73507812 8.0625 11.5625 C8.34258886 13.95318771 8.34258886 13.95318771 9 16 C9.99 16.33 10.98 16.66 12 17 C10.02 17.99 10.02 17.99 8 19 C6.8529806 17.20909242 5.70742065 15.41725003 4.5625 13.625 C3.60537109 12.12839844 3.60537109 12.12839844 2.62890625 10.6015625 C0.18368951 6.6962523 -0.10034496 4.61586816 0 0 Z " fill="#2E5056" transform="translate(120,330)"/>
<path d="M0 0 C0.33 0.66 0.66 1.32 1 2 C-0.26312042 5.44487388 -2.3605117 7.51577572 -5 10 C-5.66 10.70125 -6.32 11.4025 -7 12.125 C-8.92787048 13.93237858 -10.58674262 14.96574684 -13 16 C-13.66 15.34 -14.32 14.68 -15 14 C-13.88121617 12.82737096 -12.75476949 11.66204862 -11.625 10.5 C-10.99851562 9.8503125 -10.37203125 9.200625 -9.7265625 8.53125 C-8 7 -8 7 -6 7 C-5.34 5.68 -4.68 4.36 -4 3 C-3.34 3 -2.68 3 -2 3 C-2 2.34 -2 1.68 -2 1 C-1.34 0.67 -0.68 0.34 0 0 Z " fill="#449288" transform="translate(76,121)"/>
<path d="M0 0 C1.32 0.33 2.64 0.66 4 1 C4 1.66 4 2.32 4 3 C4.66 3 5.32 3 6 3 C6 3.66 6 4.32 6 5 C6.53625 5.226875 7.0725 5.45375 7.625 5.6875 C10.78500863 7.43382056 13.2676983 9.6402849 16 12 C15.67 12.99 15.34 13.98 15 15 C14.34 15 13.68 15 13 15 C12.67 14.01 12.34 13.02 12 12 C11.01 12 10.02 12 9 12 C9 11.01 9 10.02 9 9 C7.68 9 6.36 9 5 9 C5 7.68 5 6.36 5 5 C4.01 5 3.02 5 2 5 C1.67 6.65 1.34 8.3 1 10 C0.67 10 0.34 10 0 10 C0 6.7 0 3.4 0 0 Z " fill="#2B817A" transform="translate(115,203)"/>
<path d="M0 0 C0 3 0 3 -1.21484375 4.578125 C-3.11406629 6.42136139 -5.0353472 8.22640517 -7 10 C-7.73347656 10.67546875 -8.46695312 11.3509375 -9.22265625 12.046875 C-14.86437083 16.88539522 -14.86437083 16.88539522 -18.12890625 17.21484375 C-20.0625 16.9375 -20.0625 16.9375 -23 16 C-23 15.34 -23 14.68 -23 14 C-23.804375 13.7525 -24.60875 13.505 -25.4375 13.25 C-28 12 -28 12 -28.8125 9.875 C-28.874375 9.25625 -28.93625 8.6375 -29 8 C-27.02 8.99 -27.02 8.99 -25 10 C-25 10.66 -25 11.32 -25 12 C-22.36398822 13.41214917 -19.98521126 14.64289062 -17 15 C-15.07185246 13.86675728 -15.07185246 13.86675728 -13.3125 12.0625 C-12.62800781 11.423125 -11.94351562 10.78375 -11.23828125 10.125 C-10.49964844 9.42375 -9.76101563 8.7225 -9 8 C-7.33789885 6.51570502 -5.67131345 5.03641423 -4 3.5625 C-2.66638699 2.3753141 -1.33295015 1.18793011 0 0 Z " fill="#486E5B" transform="translate(314,207)"/>
<path d="M0 0 C-0.33 2.31 -0.66 4.62 -1 7 C-2.6045556 6.85851011 -4.20863767 6.71164314 -5.8125 6.5625 C-6.70582031 6.48128906 -7.59914062 6.40007812 -8.51953125 6.31640625 C-11 6 -11 6 -14 5 C-14 4.34 -14 3.68 -14 3 C-13.34 3 -12.68 3 -12 3 C-12 2.34 -12 1.68 -12 1 C-9.525 1.99 -9.525 1.99 -7 3 C-7 2.34 -7 1.68 -7 1 C-4.50935112 0.31292445 -2.62113708 0 0 0 Z " fill="#2C4149" transform="translate(176,457)"/>
<path d="M0 0 C1.32 0 2.64 0 4 0 C4 0.99 4 1.98 4 3 C4.99 3 5.98 3 7 3 C11.25 9.375 11.25 9.375 11 14 C10.34 14 9.68 14 9 14 C8.401875 13.0925 7.80375 12.185 7.1875 11.25 C5.19323102 7.91871602 5.19323102 7.91871602 2.25 5.875 C1.13625 4.946875 1.13625 4.946875 0 4 C0 2.68 0 1.36 0 0 Z " fill="#33686A" transform="translate(181,249)"/>
<path d="M0 0 C3.3 0 6.6 0 10 0 C10.04898437 0.89203125 10.09796875 1.7840625 10.1484375 2.703125 C10.22320312 3.87359375 10.29796875 5.0440625 10.375 6.25 C10.44460938 7.41015625 10.51421875 8.5703125 10.5859375 9.765625 C10.96248308 12.70694334 11.4774123 14.49949011 13 17 C11.35 16.67 9.7 16.34 8 16 C7.34843591 11.27616037 6.88049363 6.78025483 7 2 C4.69 1.67 2.38 1.34 0 1 C0 0.67 0 0.34 0 0 Z " fill="#347A70" transform="translate(272,198)"/>
<path d="M0 0 C0.99 0.33 1.98 0.66 3 1 C2.01 2.485 2.01 2.485 1 4 C1.22357752 6.98103359 1.5985823 8.53435547 3.5625 10.8125 C4.036875 11.204375 4.51125 11.59625 5 12 C4.54625 12.433125 4.0925 12.86625 3.625 13.3125 C1.79975666 15.10798342 1.79975666 15.10798342 0 18 C-1.32 16.68 -2.64 15.36 -4 14 C-3.34 13.67 -2.68 13.34 -2 13 C-1.67 12.01 -1.34 11.02 -1 10 C-1.66 10 -2.32 10 -3 10 C-2.21302675 6.58978257 -1.12880057 3.31114834 0 0 Z " fill="#D5D8DC" transform="translate(206,80)"/>
<path d="M0 0 C0.99 0.33 1.98 0.66 3 1 C3 2.98 3 4.96 3 7 C4.32 7.33 5.64 7.66 7 8 C7.33 11.3 7.66 14.6 8 18 C7.34 18.33 6.68 18.66 6 19 C4.7947778 16.77890472 3.61112596 14.5502135 2.4375 12.3125 C2.09525391 11.68666016 1.75300781 11.06082031 1.40039062 10.41601562 C-0.16044313 7.4047101 -1.04450625 5.46152368 -0.71484375 2.04296875 C-0.47894531 1.36878906 -0.24304687 0.69460938 0 0 Z " fill="#325C5F" transform="translate(53,353)"/>
<path d="M0 0 C0.99435406 3.09354597 0.87840996 4.90279155 0 8 C-5 6.33333333 -10 4.66666667 -15 3 C-11.95882646 1.22945376 -9.87618352 0.79112945 -6.375 0.9375 C-3.05753853 1.11438333 -3.05753853 1.11438333 0 0 Z " fill="#397273" transform="translate(175,240)"/>
<path d="M0 0 C-2.475 3.465 -2.475 3.465 -5 7 C-6.0725 6.835 -7.145 6.67 -8.25 6.5 C-12.03028752 5.91189085 -12.03028752 5.91189085 -16 6 C-11.08808488 1.68346853 -6.6211671 -1.65529178 0 0 Z " fill="#313D47" transform="translate(311,417)"/>
<path d="M0 0 C0.33 0 0.66 0 1 0 C1.04898437 1.27875 1.09796875 2.5575 1.1484375 3.875 C1.22352991 5.58335222 1.29907487 7.29168459 1.375 9 C1.4059375 9.83917969 1.436875 10.67835938 1.46875 11.54296875 C1.66008895 15.65675622 2.01498327 19.45436131 3.09375 23.4375 C4.06733906 27.26471216 3.90049822 28.6213365 2 32 C1.67 32 1.34 32 1 32 C0.09183202 28.13792926 -0.11643845 24.56851344 -0.09765625 20.60546875 C-0.09443359 19.40341797 -0.09121094 18.20136719 -0.08789062 16.96289062 C-0.07951172 15.71701172 -0.07113281 14.47113281 -0.0625 13.1875 C-0.05798828 11.92228516 -0.05347656 10.65707031 -0.04882812 9.35351562 C-0.03706251 6.2356289 -0.02062272 3.11783867 0 0 Z " fill="#2B5B5E" transform="translate(347,288)"/>
<path d="M0 0 C2.0625 0.4375 2.0625 0.4375 4 1 C0.66666667 3.66666667 -2.66666667 6.33333333 -6 9 C-6.99 7.35 -7.98 5.7 -9 4 C-8.34 3.01 -7.68 2.02 -7 1 C-3.9375 0.875 -3.9375 0.875 -1 1 C-0.67 0.67 -0.34 0.34 0 0 Z " fill="#2B6868" transform="translate(258,248)"/>
<path d="M0 0 C3 1 3 1 4 3 C4.41081422 6.01263762 4.57293414 8.11455633 2.8828125 10.7265625 C1.64587643 12.20110211 0.32734487 13.60628788 -1 15 C-2.32 14.01 -3.64 13.02 -5 12 C-3.36587557 10.29159719 -2.13093906 9.06546953 0 8 C0 5.36 0 2.72 0 0 Z " fill="#3C474F" transform="translate(243,122)"/>
<path d="M0 0 C1.60568666 0.28317926 3.20952047 0.57687791 4.8125 0.875 C6.15248047 1.11863281 6.15248047 1.11863281 7.51953125 1.3671875 C10 2 10 2 13 4 C12.67 5.32 12.34 6.64 12 8 C9.36 8 6.72 8 4 8 C4 7.34 4 6.68 4 6 C4.66 5.67 5.32 5.34 6 5 C4.02 4.01 2.04 3.02 0 2 C0 1.34 0 0.68 0 0 Z " fill="#2B7875" transform="translate(173,200)"/>
<path d="M0 0 C2.31 0 4.62 0 7 0 C6.6875 1.9375 6.6875 1.9375 6 4 C5.01 4.33 4.02 4.66 3 5 C1.6537806 8.38570149 1.68962416 12.14822622 1.4375 15.75 C1.35371094 16.92046875 1.26992187 18.0909375 1.18359375 19.296875 C1.12300781 20.18890625 1.06242188 21.0809375 1 22 C0.67 22 0.34 22 0 22 C0 14.74 0 7.48 0 0 Z " fill="#D8E9EC" transform="translate(157,243)"/>
<path d="M0 0 C0.66 0 1.32 0 2 0 C2.36625971 4.51720311 2.36625971 4.51720311 0.625 6.8125 C-1 8 -1 8 -3 8 C-2.67 9.32 -2.34 10.64 -2 12 C-3.98 12.99 -5.96 13.98 -8 15 C-6.5482621 9.33822218 -3.68441695 4.50540116 0 0 Z " fill="#D1E2E2" transform="translate(250,259)"/>
<path d="M0 0 C5.66710699 1.31793186 7.66437233 3.48709197 11 8 C10.34 8 9.68 8 9 8 C8.67 8.66 8.34 9.32 8 10 C4.7 7.69 1.4 5.38 -2 3 C-1.34 2.67 -0.68 2.34 0 2 C0 1.34 0 0.68 0 0 Z " fill="#39434B" transform="translate(290,115)"/>
<path d="M0 0 C0.99 0.66 1.98 1.32 3 2 C3.66 2.33 4.32 2.66 5 3 C4.67 3.99 4.34 4.98 4 6 C-1.75 6.125 -1.75 6.125 -4 5 C-4 4.34 -4 3.68 -4 3 C-4.99 3 -5.98 3 -7 3 C-7 2.01 -7 1.02 -7 0 C-4.28569464 -1.35715268 -2.88661718 -0.77445827 0 0 Z " fill="#273843" transform="translate(203,466)"/>
<path d="M0 0 C0.33 0 0.66 0 1 0 C1 4.29 1 8.58 1 13 C1.66 13.33 2.32 13.66 3 14 C2.67 14.99 2.34 15.98 2 17 C2.33 17.33 2.66 17.66 3 18 C3.27314815 23.73611111 3.27314815 23.73611111 3 26 C2.34 26.66 1.68 27.32 1 28 C-0.0592918 24.82212459 -0.11458939 22.57411057 -0.09765625 19.23828125 C-0.09443359 18.12001953 -0.09121094 17.00175781 -0.08789062 15.84960938 C-0.07951172 14.68236328 -0.07113281 13.51511719 -0.0625 12.3125 C-0.05573242 10.54422852 -0.05573242 10.54422852 -0.04882812 8.74023438 C-0.03703273 5.82677211 -0.0205727 2.91341137 0 0 Z " fill="#28464D" transform="translate(198,317)"/>
<path d="M0 0 C2.39414726 3.59122089 2.56015789 6.04470273 3.0625 10.3125 C3.61454878 14.89769853 4.20294249 19.45042394 5 24 C4.01 23.67 3.02 23.34 2 23 C0.29005228 15.2441657 -0.24923458 7.93396732 0 0 Z " fill="#C6DDDE" transform="translate(34,296)"/>
<path d="M0 0 C4.25320385 -0.35443365 5.67612238 0.50709178 9 3 C11.66761764 3.25124826 11.66761764 3.25124826 14 3 C14.93423645 6.01031744 15.04449911 6.86650268 14 10 C11.66390677 8.52504318 9.33109833 7.04531255 7 5.5625 C6.33226562 5.14162109 5.66453125 4.72074219 4.9765625 4.28710938 C3.30037435 3.21811183 1.64799163 2.11197395 0 1 C0 0.67 0 0.34 0 0 Z " fill="#354048" transform="translate(265,102)"/>
<path d="M0 0 C-0.969375 0.45375 -1.93875 0.9075 -2.9375 1.375 C-6.07079582 2.65786221 -6.07079582 2.65786221 -7 5 C-6.34 5 -5.68 5 -5 5 C-5.33 5.99 -5.66 6.98 -6 8 C-7.65 8 -9.3 8 -11 8 C-11.33 6.68 -11.66 5.36 -12 4 C-11.01 4 -10.02 4 -9 4 C-10.65 3.67 -12.3 3.34 -14 3 C-9.7368213 0.15788087 -5.03577274 -2.0143091 0 0 Z " fill="#387E7C" transform="translate(271,200)"/>
<path d="M0 0 C0.99 0.495 0.99 0.495 2 1 C2 1.66 2 2.32 2 3 C2.66 3 3.32 3 4 3 C4.33 2.34 4.66 1.68 5 1 C5.99 2.65 6.98 4.3 8 6 C8.66 5.67 9.32 5.34 10 5 C10 5.66 10 6.32 10 7 C10.66 7.33 11.32 7.66 12 8 C10.56260487 8.02712066 9.12506137 8.04645067 7.6875 8.0625 C6.48673828 8.07990234 6.48673828 8.07990234 5.26171875 8.09765625 C3 8 3 8 0 7 C0 4.69 0 2.38 0 0 Z " fill="#333F48" transform="translate(198,392)"/>
<path d="M0 0 C0.33 0 0.66 0 1 0 C1.06058594 1.30195313 1.12117188 2.60390625 1.18359375 3.9453125 C1.26804562 5.67188399 1.35269126 7.398446 1.4375 9.125 C1.47681641 9.9809375 1.51613281 10.836875 1.55664062 11.71875 C1.73802404 15.34641831 1.96909353 18.82269446 2.59375 22.40625 C3.11546526 25.7372013 2.24857313 27.91528992 1 31 C0.67 31 0.34 31 0 31 C0 20.77 0 10.54 0 0 Z " fill="#2B6F6A" transform="translate(114,205)"/>
<path d="M0 0 C1.5 1.0625 1.5 1.0625 3 3 C3.1875 6.6875 3.1875 6.6875 3 10 C-3.75 8.375 -3.75 8.375 -6 5 C-5.38125 4.9175 -4.7625 4.835 -4.125 4.75 C-1.81562433 4.18741541 -1.81562433 4.18741541 -0.75 1.9375 C-0.5025 1.298125 -0.255 0.65875 0 0 Z " fill="#274548" transform="translate(125,432)"/>
<path d="M0 0 C6.42200129 -0.29190915 12.75415744 0.46460319 19 2 C19.66 2.66 20.32 3.32 21 4 C16.05 4 11.1 4 6 4 C6 3.34 6 2.68 6 2 C4.02 2.33 2.04 2.66 0 3 C0 2.01 0 1.02 0 0 Z " fill="#2F3D46" transform="translate(197,428)"/>
<path d="M0 0 C0 0.66 0 1.32 0 2 C-0.66 2 -1.32 2 -2 2 C-2.33 2.99 -2.66 3.98 -3 5 C-4.4375 6.5625 -4.4375 6.5625 -6 8 C-6.66 8.66 -7.32 9.32 -8 10 C-8.99 9.34 -9.98 8.68 -11 8 C-11.99 8 -12.98 8 -14 8 C-12.37615858 6.85252535 -10.75088944 5.7070709 -9.125 4.5625 C-8.22007812 3.92441406 -7.31515625 3.28632813 -6.3828125 2.62890625 C-2.53717026 0 -2.53717026 0 0 0 Z " fill="#CFDFE0" transform="translate(269,246)"/>
<path d="M0 0 C2.31 0.66 4.62 1.32 7 2 C7 2.99 7 3.98 7 5 C8.32 5 9.64 5 11 5 C11.66 3.68 12.32 2.36 13 1 C13.99 1.33 14.98 1.66 16 2 C12.61558192 6.7140109 12.61558192 6.7140109 10.125 7.87109375 C8 8 8 8 5.859375 6.6015625 C5.16328125 5.94929687 4.4671875 5.29703125 3.75 4.625 C3.04359375 3.97789062 2.3371875 3.33078125 1.609375 2.6640625 C0 1 0 1 0 0 Z " fill="#BFD9DB" transform="translate(210,219)"/>
<path d="M0 0 C-2.64341928 1.76227952 -5.23077235 3.19871008 -8.0625 4.625 C-8.94035156 5.07101563 -9.81820312 5.51703125 -10.72265625 5.9765625 C-13 7 -13 7 -15 7 C-14.67 5.02 -14.34 3.04 -14 1 C-9.27616037 0.34843591 -4.78025483 -0.11950637 0 0 Z " fill="#D5E4E5" transform="translate(255,203)"/>
<path d="M0 0 C3.28946487 3.74318416 5.41968042 7.25904127 7 12 C6.6875 15.4375 6.6875 15.4375 6 18 C5.34 17.67 4.68 17.34 4 17 C4 15.02 4 13.04 4 11 C3.34 11 2.68 11 2 11 C1.67 8.69 1.34 6.38 1 4 C0.34 4.66 -0.32 5.32 -1 6 C-0.67 4.02 -0.34 2.04 0 0 Z " fill="#C6DADC" transform="translate(189,261)"/>
<path d="M0 0 C0.99 0 1.98 0 3 0 C3.33 1.65 3.66 3.3 4 5 C4.99 5 5.98 5 7 5 C7 5.66 7 6.32 7 7 C8.32 6.34 9.64 5.68 11 5 C10.67 6.65 10.34 8.3 10 10 C6.43949035 9.69481346 4.99964963 8.99971192 2.1875 6.6875 C0 4 0 4 0 0 Z " fill="#2C4B51" transform="translate(92,411)"/>
<path d="M0 0 C7.92 0 15.84 0 24 0 C24 0.33 24 0.66 24 1 C23.00097656 1.04898437 22.00195312 1.09796875 20.97265625 1.1484375 C19.68230469 1.22320312 18.39195312 1.29796875 17.0625 1.375 C15.77472656 1.44460938 14.48695313 1.51421875 13.16015625 1.5859375 C12.11730469 1.72257812 11.07445312 1.85921875 10 2 C9.67 2.66 9.34 3.32 9 4 C7.68 3.67 6.36 3.34 5 3 C5.33 2.67 5.66 2.34 6 2 C3.03 1.505 3.03 1.505 0 1 C0 0.67 0 0.34 0 0 Z " fill="#27333D" transform="translate(232,432)"/>
<path d="M0 0 C0.99 0.33 1.98 0.66 3 1 C1.62312297 2.22989015 0.22264167 3.43339578 -1.1875 4.625 C-1.96480469 5.29789063 -2.74210938 5.97078125 -3.54296875 6.6640625 C-6 8 -6 8 -8.67578125 7.3984375 C-11 6 -11 6 -13 3 C-12.0925 3.185625 -11.185 3.37125 -10.25 3.5625 C-7.26466625 3.96437185 -5.7303572 4.12980298 -3 3 C-1.26973898 1.52109931 -1.26973898 1.52109931 0 0 Z " fill="#9C9571" transform="translate(149,215)"/>
<path d="M0 0 C0 0.33 0 0.66 0 1 C-1.18078125 1.27714844 -2.3615625 1.55429688 -3.578125 1.83984375 C-5.13542016 2.2057143 -6.69271163 2.57160054 -8.25 2.9375 C-9.02730469 3.11990234 -9.80460937 3.30230469 -10.60546875 3.49023438 C-11.73662109 3.75610352 -11.73662109 3.75610352 -12.890625 4.02734375 C-13.92751465 4.27085571 -13.92751465 4.27085571 -14.98535156 4.51928711 C-16.99399101 4.9985662 -18.99756942 5.49546602 -21 6 C-21 5.34 -21 4.68 -21 4 C-13.94912244 0.01162482 -8.01426231 -0.48817841 0 0 Z " fill="#C4E2E0" transform="translate(277,197)"/>
<path d="M0 0 C2 2 2 2 2 5 C2.99 4.67 3.98 4.34 5 4 C4.34 5.65 3.68 7.3 3 9 C1.85073734 8.04578192 0.70569459 7.08647955 -0.4375 6.125 C-1.07558594 5.59132813 -1.71367187 5.05765625 -2.37109375 4.5078125 C-4 3 -4 3 -5 1 C-2.625 0.375 -2.625 0.375 0 0 Z M2 1 C4 2 4 2 4 2 Z " fill="#D7DBDF" transform="translate(371,401)"/>
<path d="M0 0 C1.03159626 3.09478879 0.97482862 4.52631393 0.5625 7.6875 C0.46066406 8.49574219 0.35882813 9.30398438 0.25390625 10.13671875 C0.17011719 10.75160156 0.08632813 11.36648438 0 12 C-0.33 12 -0.66 12 -1 12 C-1.33 16.29 -1.66 20.58 -2 25 C-2.33 25 -2.66 25 -3 25 C-3 18.4 -3 11.8 -3 5 C-2.34 5 -1.68 5 -1 5 C-0.67 3.35 -0.34 1.7 0 0 Z " fill="#2A6E72" transform="translate(351,248)"/>
<path d="M0 0 C-0.61728115 3.38361519 -1.86979718 5.52002561 -3.9375 8.25 C-4.46214844 8.95640625 -4.98679687 9.6628125 -5.52734375 10.390625 C-6.01332031 10.92171875 -6.49929688 11.4528125 -7 12 C-7.66 12 -8.32 12 -9 12 C-8.57270986 9.52171717 -8.28174873 8.27047878 -6.4375 6.5 C-4.53872976 4.86494057 -4.53872976 4.86494057 -5 1 C-3 0 -3 0 0 0 Z " fill="#2F4E50" transform="translate(416,377)"/>
<path d="M0 0 C2.93200474 2.85276137 5.64315404 5.65079784 8 9 C7.34 10.32 6.68 11.64 6 13 C5.34 13 4.68 13 4 13 C3.67 10.36 3.34 7.72 3 5 C2.01 5.33 1.02 5.66 0 6 C-0.33 5.34 -0.66 4.68 -1 4 C-0.34 4 0.32 4 1 4 C0.67 2.68 0.34 1.36 0 0 Z " fill="#375B60" transform="translate(405,343)"/>
<path d="M0 0 C6.71114865 3.23986486 6.71114865 3.23986486 8.1875 7.125 C8.455625 8.07375 8.72375 9.0225 9 10 C8.01 10.33 7.02 10.66 6 11 C4.9944239 9.54550599 3.99569565 8.08627557 3 6.625 C2.443125 5.81289063 1.88625 5.00078125 1.3125 4.1640625 C0 2 0 2 0 0 Z " fill="#D1E1E2" transform="translate(399,332)"/>
<path d="M0 0 C0.33 0 0.66 0 1 0 C1.144375 1.134375 1.28875 2.26875 1.4375 3.4375 C1.61171478 6.80777201 1.61171478 6.80777201 3 8 C3.04063832 9.66617115 3.042721 11.33388095 3 13 C3.66 13.33 4.32 13.66 5 14 C4.34 14.66 3.68 15.32 3 16 C2.01 16 1.02 16 0 16 C0 10.72 0 5.44 0 0 Z " fill="#2E6C6A" transform="translate(35,283)"/>
<path d="M0 0 C2.31 0 4.62 0 7 0 C7 4.62 7 9.24 7 14 C7.66 14 8.32 14 9 14 C9.66 15.65 10.32 17.3 11 19 C7.83884224 17.63016497 7.0072908 17.0109362 5 14 C4.8046875 10.86328125 4.8046875 10.86328125 4.875 7.3125 C4.89304687 6.13300781 4.91109375 4.95351562 4.9296875 3.73828125 C4.95289063 2.83464844 4.97609375 1.93101562 5 1 C3.35 1 1.7 1 0 1 C0 0.67 0 0.34 0 0 Z " fill="#999D7F" transform="translate(277,197)"/>
<path d="M0 0 C0.66 0.33 1.32 0.66 2 1 C0.25612361 2.79799669 -1.49458982 4.58832297 -3.25 6.375 C-3.74113281 6.88289062 -4.23226563 7.39078125 -4.73828125 7.9140625 C-7.30582136 10.51583648 -9.57391571 12.64588097 -13 14 C-12.8125 12.125 -12.8125 12.125 -12 10 C-10.34795544 9.29788106 -8.68076231 8.63028587 -7 8 C-6.67 7.01 -6.34 6.02 -6 5 C-5.34 5 -4.68 5 -4 5 C-4 4.34 -4 3.68 -4 3 C-2 1.375 -2 1.375 0 0 Z " fill="#9F9971" transform="translate(317,202)"/>
<path d="M0 0 C1.32 0.66 2.64 1.32 4 2 C-0.1650982 4.38005611 -3.1776588 5.73383453 -8 5 C-10.375 3 -10.375 3 -12 1 C-10.95199219 1.14308594 -10.95199219 1.14308594 -9.8828125 1.2890625 C-8.97273438 1.39992187 -8.06265625 1.51078125 -7.125 1.625 C-5.76761719 1.79902344 -5.76761719 1.79902344 -4.3828125 1.9765625 C-3.59648437 1.98429688 -2.81015625 1.99203125 -2 2 C-1.34 1.34 -0.68 0.68 0 0 Z " fill="#424B51" transform="translate(381,179)"/>
<path d="M0 0 C2.92526794 1.31132701 4.82995156 2.65634769 7 5 C7.886875 5.886875 8.77375 6.77375 9.6875 7.6875 C10.450625 8.450625 11.21375 9.21375 12 10 C8.45162603 10 7.24987942 9.16095215 4.3125 7.25 C3.50425781 6.73953125 2.69601563 6.2290625 1.86328125 5.703125 C1.24839844 5.14109375 0.63351563 4.5790625 0 4 C0 2.68 0 1.36 0 0 Z " fill="#CDD8DC" transform="translate(140,396)"/>
<path d="M0 0 C2 1.375 2 1.375 4 3 C4 3.66 4 4.32 4 5 C5.65 4.67 7.3 4.34 9 4 C9 4.66 9 5.32 9 6 C9.66 6.33 10.32 6.66 11 7 C10.67 7.99 10.34 8.98 10 10 C8.55901389 9.23570339 7.12233946 8.46327445 5.6875 7.6875 C4.48673828 7.04361328 4.48673828 7.04361328 3.26171875 6.38671875 C1.16212728 5.09940446 -0.35447721 3.81593292 -2 2 C-1.34 2 -0.68 2 0 2 C0 1.34 0 0.68 0 0 Z " fill="#373D47" transform="translate(262,50)"/>
<path d="M0 0 C0.598125 0.165 1.19625 0.33 1.8125 0.5 C4.11344336 1.1114124 4.11344336 1.1114124 7 1 C7.99 1 8.98 1 10 1 C9.1875 3.4375 9.1875 3.4375 8 6 C7.01 6.33 6.02 6.66 5 7 C3.29115995 5.37660195 1.62553283 3.70680947 0 2 C0 1.34 0 0.68 0 0 Z " fill="#D5E0E0" transform="translate(118,378)"/>
<path d="M0 0 C2.4375 1.25 2.4375 1.25 3.4375 4.25 C3.1075 4.91 2.7775 5.57 2.4375 6.25 C-0.80521506 5.6909112 -2.49307424 4.8367822 -4.5625 2.25 C-4.5625 1.59 -4.5625 0.93 -4.5625 0.25 C-2.5625 -0.75 -2.5625 -0.75 0 0 Z " fill="#27484F" transform="translate(139.5625,355.75)"/>
<path d="M0 0 C-0.33 0.99 -0.66 1.98 -1 3 C-3.28515625 3.94921875 -3.28515625 3.94921875 -6.0625 4.6875 C-7.44115234 5.06455078 -7.44115234 5.06455078 -8.84765625 5.44921875 C-9.55792969 5.63097656 -10.26820313 5.81273437 -11 6 C-10.67578125 4.078125 -10.67578125 4.078125 -10 2 C-6.40349908 0.40155515 -3.96602757 0 0 0 Z " fill="#396F6D" transform="translate(279,240)"/>
<path d="M0 0 C0.99 0.99 1.98 1.98 3 3 C1.35 5.31 -0.3 7.62 -2 10 C-4.9375 9.625 -4.9375 9.625 -8 9 C-8.33 8.34 -8.66 7.68 -9 7 C-7.34385343 6.61781233 -5.67542976 6.28604898 -4 6 C-3.67 6.33 -3.34 6.66 -3 7 C-2.34 6.01 -1.68 5.02 -1 4 C-0.34 4 0.32 4 1 4 C0.67 2.68 0.34 1.36 0 0 Z " fill="#3C454D" transform="translate(252,105)"/>
<path d="M0 0 C-1.22984849 3.68954546 -1.71240619 3.35620309 -5 5 C-6.70496537 6.62746694 -8.37897032 8.28891311 -10 10 C-9.68657358 6.55230934 -9.32465015 4.44059663 -7.25 1.625 C-4.58988985 -0.29619066 -3.20935531 -0.35659503 0 0 Z " fill="#3F464E" transform="translate(246,21)"/>
<path d="M0 0 C-0.33 0.99 -0.66 1.98 -1 3 C-9.57142857 4.42857143 -9.57142857 4.42857143 -13 2 C-8.46298506 0.54815522 -4.81938524 -0.23509196 0 0 Z " fill="#313D47" transform="translate(277,428)"/>
<path d="M0 0 C1.32 0 2.64 0 4 0 C1.89285714 5.99725275 1.89285714 5.99725275 -1 8 C-3.125 7.8125 -3.125 7.8125 -5 7 C-5.33 6.34 -5.66 5.68 -6 5 C-4.35 5 -2.7 5 -1 5 C-0.67 3.35 -0.34 1.7 0 0 Z " fill="#395458" transform="translate(403,390)"/>
<path d="M0 0 C1.9375 0.75 1.9375 0.75 4 2 C4.79875868 4.13002316 5 5.73304965 5 8 C2.69 7.67 0.38 7.34 -2 7 C-1.67 6.01 -1.34 5.02 -1 4 C-0.34 4 0.32 4 1 4 C0.67 2.68 0.34 1.36 0 0 Z " fill="#2C5056" transform="translate(411,352)"/>
<path d="M0 0 C3.7952131 1.49097658 5.61042731 3.75700849 8 7 C7.01 7.495 7.01 7.495 6 8 C3.7522025 5.94766315 2.9977758 4.99332739 2 2 C1.34 2 0.68 2 0 2 C0 2.99 0 3.98 0 5 C-1.98 5.33 -3.96 5.66 -6 6 C-4 4 -2 2 0 0 Z " fill="#39434D" transform="translate(350,388)"/>
<path d="M0 0 C4.28477792 2.30718811 7.72291137 4.32966073 11 8 C9.35 8.33 7.7 8.66 6 9 C6 8.34 6 7.68 6 7 C5.34 7 4.68 7 4 7 C4 6.34 4 5.68 4 5 C3.34 5 2.68 5 2 5 C1.34 3.35 0.68 1.7 0 0 Z " fill="#D4D6DB" transform="translate(344,163)"/>
<path d="M0 0 C2.86724686 0.57344937 3.8614515 0.8614515 6 3 C5.01 4.485 5.01 4.485 4 6 C4.66 6.33 5.32 6.66 6 7 C4.02 7.33 2.04 7.66 0 8 C-0.625 6.125 -0.625 6.125 -1 4 C-0.34 3.34 0.32 2.68 1 2 C0.67 1.34 0.34 0.68 0 0 Z " fill="#DDDFE0" transform="translate(338,160)"/>
<path d="M0 0 C0.33 1.32 0.66 2.64 1 4 C-1.375 4.625 -1.375 4.625 -4 5 C-4.66 4.34 -5.32 3.68 -6 3 C-6 2.01 -6 1.02 -6 0 C-3.50907189 -1.24546405 -2.58919267 -0.7767578 0 0 Z " fill="#294F53" transform="translate(136,349)"/>
<path d="M0 0 C2.475 0.495 2.475 0.495 5 1 C4.01 1.495 4.01 1.495 3 2 C3 2.99 3 3.98 3 5 C3.99 5.33 4.98 5.66 6 6 C6 7.65 6 9.3 6 11 C6.66 11 7.32 11 8 11 C7.67 11.99 7.34 12.98 7 14 C3.94998169 10.33997803 0 4.92148529 0 0 Z " fill="#C7DADC" transform="translate(90,334)"/>
<path d="M0 0 C3.94120709 0.56302958 6.7508723 1.6791945 10 4 C10 4.66 10 5.32 10 6 C10.66 6 11.32 6 12 6 C11.67 6.99 11.34 7.98 11 9 C9.16384919 7.69144447 7.33114211 6.37805538 5.5 5.0625 C4.4790625 4.33160156 3.458125 3.60070312 2.40625 2.84765625 C1.6121875 2.23792969 0.818125 1.62820312 0 1 C0 0.67 0 0.34 0 0 Z " fill="#3F4851" transform="translate(323,147)"/>
<path d="M0 0 C2.64 1.65 5.28 3.3 8 5 C7.34 5.66 6.68 6.32 6 7 C3.37886292 7 1.49064888 6.68707555 -1 6 C-0.67 4.02 -0.34 2.04 0 0 Z " fill="#D9DDDF" transform="translate(290,119)"/>
<path d="M0 0 C0.66 0 1.32 0 2 0 C2 1.98 2 3.96 2 6 C-3.61 6 -9.22 6 -15 6 C-15 5.67 -15 5.34 -15 5 C-14.08476562 4.97421875 -13.16953125 4.9484375 -12.2265625 4.921875 C-11.03804688 4.86515625 -9.84953125 4.8084375 -8.625 4.75 C-7.44164062 4.70359375 -6.25828125 4.6571875 -5.0390625 4.609375 C-1.88708247 4.34351201 -1.88708247 4.34351201 -0.5859375 1.953125 C-0.39257812 1.30859375 -0.19921875 0.6640625 0 0 Z " fill="#326765" transform="translate(465,232)"/>
<path d="M0 0 C10.55808656 -0.18451025 10.55808656 -0.18451025 15 1 C11.8250906 2.9078584 9.89414789 3.1609041 6.25 2.625 C5.45078125 2.51414063 4.6515625 2.40328125 3.828125 2.2890625 C3.22484375 2.19367188 2.6215625 2.09828125 2 2 C1.67 2.99 1.34 3.98 1 5 C0.67 5 0.34 5 0 5 C0 3.35 0 1.7 0 0 Z " fill="#3A807B" transform="translate(158,198)"/>
<path d="M0 0 C2.74792483 3.40219265 6 7.48464588 6 12 C5.01 12 4.02 12 3 12 C2.33333333 10.66666667 1.66666667 9.33333333 1 8 C0.608125 7.34 0.21625 6.68 -0.1875 6 C-1.17413108 3.57136965 -0.86626039 2.42552909 0 0 Z " fill="#C9DADD" transform="translate(52,358)"/>
<path d="M0 0 C0.33 0 0.66 0 1 0 C1 4.95 1 9.9 1 15 C-2 12 -2 12 -2.109375 9.3359375 C-1.99078125 8.35882813 -1.8721875 7.38171875 -1.75 6.375 C-1.64171875 5.39273437 -1.5334375 4.41046875 -1.421875 3.3984375 C-1 1 -1 1 0 0 Z " fill="#294548" transform="translate(239,336)"/>
<path d="M0 0 C0.804375 0.4640625 0.804375 0.4640625 1.625 0.9375 C4.40482646 2.18110657 6.99660487 2.55268583 10 3 C10.99 3.33 11.98 3.66 13 4 C11.3125 5.625 11.3125 5.625 9 7 C4.98089662 6.09570174 2.66937542 4.06483845 0 1 C0 0.67 0 0.34 0 0 Z " fill="#9B9674" transform="translate(288,216)"/>
<path d="M0 0 C0.33 0 0.66 0 1 0 C1.04898437 0.89203125 1.09796875 1.7840625 1.1484375 2.703125 C1.22320312 3.87359375 1.29796875 5.0440625 1.375 6.25 C1.44460938 7.41015625 1.51421875 8.5703125 1.5859375 9.765625 C1.96248308 12.70694334 2.4774123 14.49949011 4 17 C2.35 16.67 0.7 16.34 -1 16 C-0.67 10.72 -0.34 5.44 0 0 Z " fill="#427161" transform="translate(281,198)"/>
<path d="M0 0 C2.31 0 4.62 0 7 0 C7 0.33 7 0.66 7 1 C5.35 1.33 3.7 1.66 2 2 C1.93941406 2.91523438 1.87882813 3.83046875 1.81640625 4.7734375 C1.73261719 5.96195313 1.64882812 7.15046875 1.5625 8.375 C1.48128906 9.55835938 1.40007812 10.74171875 1.31640625 11.9609375 C1 15 1 15 0 17 C-0.66 17 -1.32 17 -2 17 C-1.76990234 16.21882813 -1.76990234 16.21882813 -1.53515625 15.421875 C-0.86017489 12.36721485 -0.65588882 9.36984029 -0.4375 6.25 C-0.35371094 5.07953125 -0.26992187 3.9090625 -0.18359375 2.703125 C-0.12300781 1.81109375 -0.06242188 0.9190625 0 0 Z " fill="#85957A" transform="translate(155,197)"/>
<path d="M0 0 C0.66 0.33 1.32 0.66 2 1 C2 1.99 2 2.98 2 4 C2.66 4 3.32 4 4 4 C4.33 6.31 4.66 8.62 5 11 C0.68393782 8.00518135 0.68393782 8.00518135 -1 6 C-0.875 2.6875 -0.875 2.6875 0 0 Z " fill="#39444E" transform="translate(301,124)"/>
<path d="M0 0 C1.65 0 3.3 0 5 0 C5.33 0.99 5.66 1.98 6 3 C8.50447516 4.21869929 8.50447516 4.21869929 11 5 C11 5.66 11 6.32 11 7 C6.96678237 5.78065514 3.45730521 4.44045073 0 2 C0 1.34 0 0.68 0 0 Z " fill="#3F5154" transform="translate(137,448)"/>
<path d="M0 0 C-0.99 0.33 -1.98 0.66 -3 1 C-3.73323796 3.01508358 -3.73323796 3.01508358 -4 5 C-5.65 5 -7.3 5 -9 5 C-9.33 3.68 -9.66 2.36 -10 1 C-6.59437148 0.22157062 -3.49234244 -0.09978121 0 0 Z " fill="#38424C" transform="translate(288,425)"/>
<path d="M0 0 C0.33 0 0.66 0 1 0 C1 1.98 1 3.96 1 6 C-3.455 7.485 -3.455 7.485 -8 9 C-3.5078125 3.53125 -3.5078125 3.53125 -2 2 C-1.34 2 -0.68 2 0 2 C0 1.34 0 0.68 0 0 Z " fill="#4D725B" transform="translate(323,198)"/>
<path d="M0 0 C1.98 0.66 3.96 1.32 6 2 C6 2.99 6 3.98 6 5 C7.32 5.33 8.64 5.66 10 6 C9.67 7.32 9.34 8.64 9 10 C7.49702124 8.52386015 5.99768715 7.04400843 4.5 5.5625 C3.6646875 4.73878906 2.829375 3.91507813 1.96875 3.06640625 C0 1 0 1 0 0 Z " fill="#A69C78" transform="translate(119,202)"/>
<path d="M0 0 C0.66 1.32 1.32 2.64 2 4 C2.66 4 3.32 4 4 4 C4 5.32 4 6.64 4 8 C0.54074837 6.7508258 -2.14693203 5.32472205 -5 3 C-4.01 3 -3.02 3 -2 3 C-1.67 2.34 -1.34 1.68 -1 1 C-0.67 0.67 -0.34 0.34 0 0 Z " fill="#D0D7D9" transform="translate(320,113)"/>
<path d="M0 0 C0.33 0.99 0.66 1.98 1 3 C-6.42857143 3.28571429 -6.42857143 3.28571429 -10 1 C-6.42181037 -1.33958553 -4.07775191 -0.9267618 0 0 Z " fill="#2D3D45" transform="translate(190,466)"/>
<path d="M0 0 C0.53625 0.2475 1.0725 0.495 1.625 0.75 C1.295 1.74 0.965 2.73 0.625 3.75 C-0.365 3.75 -1.355 3.75 -2.375 3.75 C-3.035 4.41 -3.695 5.07 -4.375 5.75 C-5.695 5.09 -7.015 4.43 -8.375 3.75 C-2.95961538 -0.31153846 -2.95961538 -0.31153846 0 0 Z " fill="#D3D8DA" transform="translate(354.375,441.25)"/>
<path d="M0 0 C6.6 0.6 6.6 0.6 9 3 C7.02 3.99 7.02 3.99 5 5 C5 4.34 5 3.68 5 3 C3.02 3.33 1.04 3.66 -1 4 C-1 1 -1 1 0 0 Z " fill="#293D43" transform="translate(188,425)"/>
<path d="M0 0 C0.66 0.66 1.32 1.32 2 2 C1.67 2.61875 1.34 3.2375 1 3.875 C-0.14193235 5.91018344 -0.14193235 5.91018344 0 8 C-0.99 8.33 -1.98 8.66 -3 9 C-3.66 8.01 -4.32 7.02 -5 6 C-3.35 4.02 -1.7 2.04 0 0 Z " fill="#D6E0E1" transform="translate(408,390)"/>
<path d="M0 0 C0.99 0 1.98 0 3 0 C3 0.66 3 1.32 3 2 C3.66 2.33 4.32 2.66 5 3 C4.01 4.485 4.01 4.485 3 6 C3.66 6 4.32 6 5 6 C4.67 6.66 4.34 7.32 4 8 C2.02 6.68 0.04 5.36 -2 4 C-1.34 2.68 -0.68 1.36 0 0 Z " fill="#CDD0D2" transform="translate(216,99)"/>
<path d="M0 0 C0 0.66 0 1.32 0 2 C0.99 2.33 1.98 2.66 3 3 C-1.75 6 -1.75 6 -4 6 C-4.33 4.35 -4.66 2.7 -5 1 C-2 0 -2 0 0 0 Z " fill="#D7DBDE" transform="translate(325,403)"/>
<path d="M0 0 C0.66 0.99 1.32 1.98 2 3 C0.35 4.98 -1.3 6.96 -3 9 C-3.33 8.34 -3.66 7.68 -4 7 C-4.66 6.67 -5.32 6.34 -6 6 C-4.02 4.02 -2.04 2.04 0 0 Z " fill="#428883" transform="translate(42,154)"/>
<path d="M0 0 C3.96 1.98 3.96 1.98 8 4 C7.67 4.99 7.34 5.98 7 7 C7.66 7.33 8.32 7.66 9 8 C5.17310382 7.20822838 2.79541463 5.79541463 0 3 C0 2.01 0 1.02 0 0 Z " fill="#3A444C" transform="translate(328,124)"/>
<path d="M0 0 C3.37503669 1.1858237 5.64722731 2.27573689 8 5 C7.34 5.66 6.68 6.32 6 7 C5.38125 6.2265625 5.38125 6.2265625 4.75 5.4375 C4.1725 4.963125 3.595 4.48875 3 4 C0.83700789 4.22757731 0.83700789 4.22757731 -1 5 C-0.67 3.35 -0.34 1.7 0 0 Z " fill="#3A434C" transform="translate(279,42)"/>
<path d="M0 0 C1.14926266 0.95421808 2.29430541 1.91352045 3.4375 2.875 C4.07558594 3.40867188 4.71367188 3.94234375 5.37109375 4.4921875 C7 6 7 6 8 8 C7.01 8 6.02 8 5 8 C5 7.34 5 6.68 5 6 C3.68 5.67 2.36 5.34 1 5 C0.67 5.66 0.34 6.32 0 7 C0 4.69 0 2.38 0 0 Z " fill="#4E7C67" transform="translate(114,198)"/>
<path d="M0 0 C0.4125 0.45375 0.825 0.9075 1.25 1.375 C3.06408095 3.05950374 4.75285627 3.99265971 7 5 C6.030625 5.12375 5.06125 5.2475 4.0625 5.375 C2.5465625 5.684375 2.5465625 5.684375 1 6 C0.67 6.66 0.34 7.32 0 8 C-1 7 -1 7 -1.125 4 C-1 1 -1 1 0 0 Z " fill="#3E998F" transform="translate(35,161)"/>
<path d="M0 0 C-0.625 1.9375 -0.625 1.9375 -2 4 C-5.125 4.75 -5.125 4.75 -8 5 C-7.25 2.5625 -7.25 2.5625 -6 0 C-3.40713222 -1.13437965 -2.55267344 -1.27633672 0 0 Z " fill="#303B43" transform="translate(281,467)"/>
<path d="M0 0 C5.28137429 0.51525603 8.57221156 2.25477117 13 5 C12.01 5.66 11.02 6.32 10 7 C9.67 6.01 9.34 5.02 9 4 C7.88625 3.8453125 7.88625 3.8453125 6.75 3.6875 C3.82985982 2.95746496 2.26812446 1.93210602 0 0 Z " fill="#294147" transform="translate(158,413)"/>
<path d="M0 0 C2.64752004 2.57784846 4.94432065 4.91648098 7 8 C2.61031544 8 1.23094261 5.87194899 -2 3 C-1.34 2.67 -0.68 2.34 0 2 C0 1.34 0 0.68 0 0 Z " fill="#D1D7DC" transform="translate(376,408)"/>
<path d="M0 0 C1.125 2.0625 1.125 2.0625 2 4 C0.02 4 -1.96 4 -4 4 C-4.66 2.68 -5.32 1.36 -6 0 C-2.25 -1.125 -2.25 -1.125 0 0 Z " fill="#274A50" transform="translate(400,391)"/>
<path d="M0 0 C0.66 0 1.32 0 2 0 C2.66 3.3 3.32 6.6 4 10 C3.34 10 2.68 10 2 10 C1.01 7.03 0.02 4.06 -1 1 C-0.67 0.67 -0.34 0.34 0 0 Z " fill="#31585A" transform="translate(356,338)"/>
<path d="M0 0 C0.66 0 1.32 0 2 0 C3.31626692 3.61973402 4 6.09567131 4 10 C3.34 10 2.68 10 2 10 C0.68373308 6.38026598 0 3.90432869 0 0 Z " fill="#D5E9EA" transform="translate(81,303)"/>
<path d="M0 0 C0.99 0.33 1.98 0.66 3 1 C2.67 1.66 2.34 2.32 2 3 C2.66 3.33 3.32 3.66 4 4 C3.21625 3.95875 2.4325 3.9175 1.625 3.875 C-1.16116119 3.71271266 -1.16116119 3.71271266 -3 6 C-5.625 6.125 -5.625 6.125 -8 6 C-7.01 5.34 -6.02 4.68 -5 4 C-3.7625 2.9171875 -3.7625 2.9171875 -2.5 1.8125 C-1.675 1.214375 -0.85 0.61625 0 0 Z " fill="#297573" transform="translate(149,219)"/>
<path d="M0 0 C0.33 0 0.66 0 1 0 C1.05422947 1.4370809 1.09289723 2.87475462 1.125 4.3125 C1.14820313 5.11300781 1.17140625 5.91351563 1.1953125 6.73828125 C1 9 1 9 -1 12 C-1.66 12 -2.32 12 -3 12 C-2.69230293 10.18667846 -2.37870936 8.37435655 -2.0625 6.5625 C-1.80146484 5.04849609 -1.80146484 5.04849609 -1.53515625 3.50390625 C-1 1 -1 1 0 0 Z " fill="#277C7B" transform="translate(159,203)"/>
<path d="M0 0 C4.62 0 9.24 0 14 0 C14 0.33 14 0.66 14 1 C11.03 1 8.06 1 5 1 C4.67 2.32 4.34 3.64 4 5 C2.68 3.35 1.36 1.7 0 0 Z " fill="#ACA180" transform="translate(114,197)"/>
<path d="M0 0 C1.75098126 2.62647188 3.38731308 5.28775382 5 8 C4.34 8 3.68 8 3 8 C2.67 8.99 2.34 9.98 2 11 C-1.07692308 5.70769231 -1.07692308 5.70769231 -0.6875 2.125 C-0.460625 1.42375 -0.23375 0.7225 0 0 Z " fill="#D4D9DC" transform="translate(298,125)"/>
<path d="M0 0 C2.64752004 2.57784846 4.94432065 4.91648098 7 8 C4 8 4 8 1.3125 5.5 C0.549375 4.675 -0.21375 3.85 -1 3 C-0.67 2.01 -0.34 1.02 0 0 Z " fill="#CDDDDD" transform="translate(84,406)"/>
<path d="M0 0 C0.33 0 0.66 0 1 0 C1.375 2.25 1.375 2.25 1 5 C-2 7.3125 -2 7.3125 -5 9 C-5.66 8.67 -6.32 8.34 -7 8 C-5 5 -5 5 -2.9375 4 C-0.64657009 3.10301684 -0.64657009 3.10301684 0 0 Z " fill="#31454A" transform="translate(323,372)"/>
<path d="M0 0 C4.42857143 5.14285714 4.42857143 5.14285714 5 9 C4.01 9 3.02 9 2 9 C2 8.34 2 7.68 2 7 C1.01 6.67 0.02 6.34 -1 6 C-0.67 4.02 -0.34 2.04 0 0 Z " fill="#3E6969" transform="translate(94,344)"/>
<path d="M0 0 C0.66 0 1.32 0 2 0 C3.35439668 2.70879335 3.06501451 5.00933268 3 8 C2.01 8.495 2.01 8.495 1 9 C0.63877119 7.68942607 0.28619689 6.37646376 -0.0625 5.0625 C-0.35833984 3.96615234 -0.35833984 3.96615234 -0.66015625 2.84765625 C-0.77230469 2.23792969 -0.88445312 1.62820313 -1 1 C-0.67 0.67 -0.34 0.34 0 0 Z " fill="#D3E4E6" transform="translate(394,317)"/>
<path d="M0 0 C0.33 0 0.66 0 1 0 C1.33 1.98 1.66 3.96 2 6 C0.02 6.99 -1.96 7.98 -4 9 C-2.94124926 5.59687262 -1.99097846 2.98646769 0 0 Z " fill="#C0D8D8" transform="translate(246,265)"/>
<path d="M0 0 C1.32 0.33 2.64 0.66 4 1 C1.38485683 3.12038635 -1.19637616 5.13091744 -4 7 C-4.66 6.34 -5.32 5.68 -6 5 C-5.34 4.34 -4.68 3.68 -4 3 C-2.68 3 -1.36 3 0 3 C0 2.01 0 1.02 0 0 Z " fill="#386C6A" transform="translate(258,248)"/>
<path d="M0 0 C5.28 0 10.56 0 16 0 C16 0.33 16 0.66 16 1 C15.18015625 1.04898438 14.3603125 1.09796875 13.515625 1.1484375 C12.43796875 1.22320312 11.3603125 1.29796875 10.25 1.375 C8.64898437 1.47941406 8.64898437 1.47941406 7.015625 1.5859375 C4.19793568 1.9728223 2.4169634 2.55686166 0 4 C0 2.68 0 1.36 0 0 Z " fill="#31827C" transform="translate(348,198)"/>
<path d="M0 0 C1.32 0.99 2.64 1.98 4 3 C3.67 3.66 3.34 4.32 3 5 C2.34 4.67 1.68 4.34 1 4 C0.01 4.99 -0.98 5.98 -2 7 C-2.66 6.01 -3.32 5.02 -4 4 C-2.68 2.68 -1.36 1.36 0 0 Z " fill="#458E87" transform="translate(60,136)"/>
<path d="M0 0 C0.7940625 0.07863281 1.588125 0.15726562 2.40625 0.23828125 C4.5 0.6875 4.5 0.6875 6.5 2.6875 C4.70866022 2.74141993 2.91686101 2.78025571 1.125 2.8125 C0.12726563 2.83570313 -0.87046875 2.85890625 -1.8984375 2.8828125 C-4.5 2.6875 -4.5 2.6875 -6.5 0.6875 C-4.02756353 -0.54871824 -2.72682061 -0.29658601 0 0 Z " fill="#2A363D" transform="translate(232.5,401.3125)"/>
<path d="M0 0 C3.26460973 1.80412643 4.88929795 2.83394693 7 6 C6.01 6.33 5.02 6.66 4 7 C4 6.34 4 5.68 4 5 C2.68 4.67 1.36 4.34 0 4 C0 2.68 0 1.36 0 0 Z " fill="#D4E0E2" transform="translate(392,392)"/>
<path d="M0 0 C3.29963329 1.09987776 3.61064772 1.45586748 5.25 4.3125 C5.60578125 4.90675781 5.9615625 5.50101562 6.328125 6.11328125 C7 8 7 8 6 12 C4.02 8.04 2.04 4.08 0 0 Z " fill="#D0E5E6" transform="translate(97,348)"/>
<path d="M0 0 C2.64 0.33 5.28 0.66 8 1 C8 1.99 8 2.98 8 4 C8.99 4.33 9.98 4.66 11 5 C10.01 5.495 10.01 5.495 9 6 C6.8359375 5.00390625 6.8359375 5.00390625 4.375 3.5625 C3.55773437 3.08941406 2.74046875 2.61632812 1.8984375 2.12890625 C1.27195313 1.75636719 0.64546875 1.38382813 0 1 C0 0.67 0 0.34 0 0 Z " fill="#BAD4D4" transform="translate(192,207)"/>
<path d="M0 0 C4.95 0.99 4.95 0.99 10 2 C10 2.99 10 3.98 10 5 C9.67 4.34 9.34 3.68 9 3 C8.443125 3.20625 7.88625 3.4125 7.3125 3.625 C4.340462 4.10695211 2.68020059 3.26565028 0 2 C0 1.34 0 0.68 0 0 Z " fill="#437F7C" transform="translate(173,200)"/>
<path d="M0 0 C2 2 2 2 2.23046875 4.09375 C2.21628906 4.8878125 2.20210938 5.681875 2.1875 6.5 C2.18105469 7.2940625 2.17460937 8.088125 2.16796875 8.90625 C2 11 2 11 1 13 C0.34 13 -0.32 13 -1 13 C-0.835 12.401875 -0.67 11.80375 -0.5 11.1875 C0.1114124 8.88655664 0.1114124 8.88655664 0 6 C0 4 0 2 0 0 Z " fill="#3C444C" transform="translate(389,162)"/>
<path d="M0 0 C0.99 1.32 1.98 2.64 3 4 C2.34 4 1.68 4 1 4 C1 4.66 1 5.32 1 6 C0.34 6 -0.32 6 -1 6 C-1 5.34 -1 4.68 -1 4 C-3.64 4 -6.28 4 -9 4 C-9 3.67 -9 3.34 -9 3 C-8.43410156 2.86722656 -7.86820312 2.73445313 -7.28515625 2.59765625 C-6.18494141 2.33275391 -6.18494141 2.33275391 -5.0625 2.0625 C-4.33160156 1.88847656 -3.60070312 1.71445313 -2.84765625 1.53515625 C-1.00030102 1.16112431 -1.00030102 1.16112431 0 0 Z " fill="#B9C0C5" transform="translate(291,63)"/>
<path d="M0 0 C0.33 0 0.66 0 1 0 C1.48828125 2.01822917 1.9765625 4.03645833 2.46484375 6.0546875 C2.94846992 8.0585657 2.94846992 8.0585657 4 10 C3.34 10.66 2.68 11.32 2 12 C0.48046875 10.79296875 0.48046875 10.79296875 -1 9 C-1.07421875 6.73828125 -1.07421875 6.73828125 -0.6875 4.3125 C-0.56761719 3.50425781 -0.44773438 2.69601563 -0.32421875 1.86328125 C-0.21722656 1.24839844 -0.11023438 0.63351563 0 0 Z " fill="#C7CBCE" transform="translate(235,29)"/>
<path d="M0 0 C-0.33 1.32 -0.66 2.64 -1 4 C-1.33 3.34 -1.66 2.68 -2 2 C-2.61875 2.350625 -3.2375 2.70125 -3.875 3.0625 C-4.57625 3.371875 -5.2775 3.68125 -6 4 C-6.66 3.67 -7.32 3.34 -8 3 C-7.67 2.01 -7.34 1.02 -7 0 C-2.25 -1.125 -2.25 -1.125 0 0 Z " fill="#293742" transform="translate(327,412)"/>
<path d="M0 0 C2.31 0.33 4.62 0.66 7 1 C6.67 2.65 6.34 4.3 6 6 C3.97945196 4.35830472 1.97956942 2.69088222 0 1 C0 0.67 0 0.34 0 0 Z " fill="#D7DADD" transform="translate(360,396)"/>
<path d="M0 0 C0.33 0.99 0.66 1.98 1 3 C-5.75 7 -5.75 7 -8 7 C-6.5361389 2.60841671 -4.02168662 2.12052567 0 0 Z " fill="#36484C" transform="translate(313,381)"/>
<path d="M0 0 C0.66 0.66 1.32 1.32 2 2 C-0.64 3.65 -3.28 5.3 -6 7 C-6 5.68 -6 4.36 -6 3 C-4.02 2.67 -2.04 2.34 0 2 C0 1.34 0 0.68 0 0 Z " fill="#C5DFDE" transform="translate(238,209)"/>
<path d="M0 0 C3.87132028 0.57352893 6.08172796 2.48704352 9 5 C7.35 5.33 5.7 5.66 4 6 C2.68 4.02 1.36 2.04 0 0 Z " fill="#D8DCDF" transform="translate(359,175)"/>
<path d="M0 0 C0.66 0 1.32 0 2 0 C0.4169423 4.2742558 -2.50568404 6.26531794 -6 9 C-5.67 7.68 -5.34 6.36 -5 5 C-4.34 5 -3.68 5 -3 5 C-2.5359375 4.0409375 -2.5359375 4.0409375 -2.0625 3.0625 C-1 1 -1 1 0 0 Z " fill="#CAE7E5" transform="translate(39,154)"/>
<path d="M0 0 C1.65 1.32 3.3 2.64 5 4 C3.35 4.66 1.7 5.32 0 6 C-0.66 5.34 -1.32 4.68 -2 4 C-1.34 2.68 -0.68 1.36 0 0 Z " fill="#DADFE0" transform="translate(321,146)"/>
<path d="M0 0 C2.91517292 1.07401108 4.77810176 1.77810176 7 4 C5.35 4.66 3.7 5.32 2 6 C1.34 5.34 0.68 4.68 0 4 C0 2.68 0 1.36 0 0 Z " fill="#D7DBDF" transform="translate(205,121)"/>
<path d="M0 0 C0.33 0.66 0.66 1.32 1 2 C0.25 4.0625 0.25 4.0625 -1 6 C-1.99 6.33 -2.98 6.66 -4 7 C-4.66 6.34 -5.32 5.68 -6 5 C-4.68 4.34 -3.36 3.68 -2 3 C-2 2.34 -2 1.68 -2 1 C-1.34 0.67 -0.68 0.34 0 0 Z " fill="#599792" transform="translate(76,121)"/>
<path d="M0 0 C3.37503669 1.1858237 5.64722731 2.27573689 8 5 C6.02 5.33 4.04 5.66 2 6 C1.34 4.02 0.68 2.04 0 0 Z " fill="#3C434C" transform="translate(200,94)"/>
<path d="M0 0 C0.66 0.99 1.32 1.98 2 3 C1.34 3 0.68 3 0 3 C0 4.32 0 5.64 0 7 C-1.32 7.33 -2.64 7.66 -4 8 C-4.66 7.01 -5.32 6.02 -6 5 C-5.38125 4.9175 -4.7625 4.835 -4.125 4.75 C-1.81562433 4.18741541 -1.81562433 4.18741541 -0.75 1.9375 C-0.5025 1.298125 -0.255 0.65875 0 0 Z " fill="#2F4B51" transform="translate(125,432)"/>
<path d="M0 0 C4.875 4.75 4.875 4.75 6 7 C4.68 7 3.36 7 2 7 C2 6.34 2 5.68 2 5 C1.01 4.67 0.02 4.34 -1 4 C-0.67 2.68 -0.34 1.36 0 0 Z " fill="#D0DCDD" transform="translate(78,399)"/>
<path d="M0 0 C1.5625 1.5625 1.5625 1.5625 3 4 C2.6875 7.75 2.6875 7.75 2 11 C1.01 10.67 0.02 10.34 -1 10 C-0.835 9.278125 -0.67 8.55625 -0.5 7.8125 C-0.02412881 5.13572455 0.077443 2.71050513 0 0 Z " fill="#335F61" transform="translate(106,364)"/>
<path d="M0 0 C2.31 0.66 4.62 1.32 7 2 C7 2.99 7 3.98 7 5 C7.66 5 8.32 5 9 5 C9 5.66 9 6.32 9 7 C5.18315774 5.44499019 2.80804268 2.96404505 0 0 Z " fill="#CAE1E3" transform="translate(210,219)"/>
<path d="M0 0 C1.32 0.33 2.64 0.66 4 1 C3.34 1.61875 2.68 2.2375 2 2.875 C-0.2284549 4.75637427 -0.2284549 4.75637427 0 7 C-1.32 6.67 -2.64 6.34 -4 6 C-2.68 4.02 -1.36 2.04 0 0 Z " fill="#277570" transform="translate(247,207)"/>
<path d="M0 0 C0.66 0.33 1.32 0.66 2 1 C2 4 2 4 0.5 5.6875 C0.005 6.120625 -0.49 6.55375 -1 7 C-1.66 5.35 -2.32 3.7 -3 2 C-2.01 1.34 -1.02 0.68 0 0 Z " fill="#D8DCDE" transform="translate(389,154)"/>
<path d="M0 0 C0.763125 0.61875 1.52625 1.2375 2.3125 1.875 C4.99625809 4.05597052 4.99625809 4.05597052 8 6 C8 6.66 8 7.32 8 8 C3.58110387 6.64978174 1.65654657 4.73884332 -1 1 C-0.67 0.67 -0.34 0.34 0 0 Z " fill="#344D51" transform="translate(111,429)"/>
<path d="M0 0 C0.625 1.875 0.625 1.875 1 4 C0.34 4.66 -0.32 5.32 -1 6 C-3.625 5.625 -3.625 5.625 -6 5 C-4.06745228 2.9754262 -2.36841312 1.57894208 0 0 Z " fill="#C9D3D6" transform="translate(323,377)"/>
<path d="M0 0 C2.35448165 2.55068845 2.98327924 3.71017358 3.1875 7.25 C3.125625 8.1575 3.06375 9.065 3 10 C1.5 8.9375 1.5 8.9375 0 7 C-0.1875 3.3125 -0.1875 3.3125 0 0 Z " fill="#2E5556" transform="translate(115,317)"/>
<path d="M0 0 C2.475 0.99 2.475 0.99 5 2 C5 2.99 5 3.98 5 5 C4.34 5.66 3.68 6.32 3 7 C2.34 6.34 1.68 5.68 1 5 C1 4.34 1 3.68 1 3 C0.67 2.01 0.34 1.02 0 0 Z " fill="#D2E3E2" transform="translate(175,249)"/>
<path d="M0 0 C3.91211733 1.15585285 6.8745041 2.35534962 10 5 C9.67 5.66 9.34 6.32 9 7 C7.4972763 6.02501855 5.99788037 5.04490611 4.5 4.0625 C3.6646875 3.51722656 2.829375 2.97195312 1.96875 2.41015625 C1.3190625 1.94480469 0.669375 1.47945312 0 1 C0 0.67 0 0.34 0 0 Z " fill="#3E454D" transform="translate(338,158)"/>
<path d="M0 0 C2.4375 0.375 2.4375 0.375 5 1 C5.33 1.66 5.66 2.32 6 3 C3.69 3.33 1.38 3.66 -1 4 C-0.67 2.68 -0.34 1.36 0 0 Z " fill="#38444E" transform="translate(380,156)"/>
<path d="M0 0 C1.32 0.33 2.64 0.66 4 1 C0.535 3.97 0.535 3.97 -3 7 C-3 6.01 -3 5.02 -3 4 C-2.34 4 -1.68 4 -1 4 C-0.67 2.68 -0.34 1.36 0 0 Z " fill="#CEE6E6" transform="translate(52,140)"/>
<path d="M0 0 C2.97 0 5.94 0 9 0 C9 1.32 9 2.64 9 4 C7.68 3.67 6.36 3.34 5 3 C5.33 2.67 5.66 2.34 6 2 C3.03 1.505 3.03 1.505 0 1 C0 0.67 0 0.34 0 0 Z " fill="#333D49" transform="translate(232,432)"/>
<path d="M0 0 C0.66 0.66 1.32 1.32 2 2 C1.34 3.32 0.68 4.64 0 6 C-0.99 5.67 -1.98 5.34 -3 5 C-1.125 1.125 -1.125 1.125 0 0 Z " fill="#293A45" transform="translate(374,417)"/>
<path d="M0 0 C1.32 0.66 2.64 1.32 4 2 C3.01 2.99 2.02 3.98 1 5 C-1.475 4.01 -1.475 4.01 -4 3 C-2.68 2.01 -1.36 1.02 0 0 Z " fill="#D2D7D8" transform="translate(312,384)"/>
<path d="M0 0 C1.64350079 3.28700157 2.41321669 5.47930015 3 9 C1.68 9 0.36 9 -1 9 C-0.67 6.03 -0.34 3.06 0 0 Z " fill="#B9CED0" transform="translate(348,320)"/>
<path d="M0 0 C0.33 0.66 0.66 1.32 1 2 C-0.625 4 -0.625 4 -3 6 C-6.25 6.25 -6.25 6.25 -9 6 C-8.443125 5.7525 -7.88625 5.505 -7.3125 5.25 C-4.60028873 3.78393985 -2.36412635 1.97010529 0 0 Z " fill="#2D6E6C" transform="translate(303,219)"/>
<path d="M0 0 C0.66 0.33 1.32 0.66 2 1 C0.35 2.65 -1.3 4.3 -3 6 C-3.66 5.67 -4.32 5.34 -5 5 C-5 4.34 -5 3.68 -5 3 C-2.625 1.3125 -2.625 1.3125 0 0 Z " fill="#3E7B77" transform="translate(245,207)"/>
<path d="M0 0 C0.99 0.33 1.98 0.66 3 1 C3 1.66 3 2.32 3 3 C3.66 3 4.32 3 5 3 C5 3.66 5 4.32 5 5 C3.68 5.33 2.36 5.66 1 6 C0.67 4.02 0.34 2.04 0 0 Z " fill="#277973" transform="translate(193,210)"/>
<path d="M0 0 C-2.98646769 1.99097846 -5.59687262 2.94124926 -9 4 C-9 3.01 -9 2.02 -9 1 C-5.8035914 -0.06546953 -3.34252724 -0.07427838 0 0 Z " fill="#C4DFDF" transform="translate(255,203)"/>
<path d="M0 0 C0.33 0.99 0.66 1.98 1 3 C1.99 3.33 2.98 3.66 4 4 C3.67 4.66 3.34 5.32 3 6 C3.66 6.33 4.32 6.66 5 7 C3.35 7 1.7 7 0 7 C0 4.69 0 2.38 0 0 Z " fill="#29333C" transform="translate(172,152)"/>
<path d="M0 0 C0.33 0.66 0.66 1.32 1 2 C1.66 2.33 2.32 2.66 3 3 C0.03 5.475 0.03 5.475 -3 8 C-3 6.68 -3 5.36 -3 4 C-2.01 4 -1.02 4 0 4 C-0.33 3.01 -0.66 2.02 -1 1 C-0.67 0.67 -0.34 0.34 0 0 Z " fill="#CFE6E7" transform="translate(45,146)"/>
<path d="M0 0 C1 3 1 3 0.3125 5.125 C-1 7 -1 7 -5 8 C-3.35 5.36 -1.7 2.72 0 0 Z " fill="#CCD2D7" transform="translate(257,104)"/>
<path d="M0 0 C3.71599191 -0.20086443 4.77208445 -0.1519437 8 2 C7.67 2.99 7.34 3.98 7 5 C3.535 3.02 3.535 3.02 0 1 C0 0.67 0 0.34 0 0 Z " fill="#414751" transform="translate(265,102)"/>
<path d="M0 0 C0.66 0.33 1.32 0.66 2 1 C2.625 3.0625 2.625 3.0625 3 5 C1.02 5.33 -0.96 5.66 -3 6 C-2.01 4.02 -1.02 2.04 0 0 Z " fill="#D5D8DD" transform="translate(283,420)"/>
<path d="M0 0 C0.99 0.33 1.98 0.66 3 1 C2.67 2.32 2.34 3.64 2 5 C0.68 4.67 -0.64 4.34 -2 4 C-1.34 2.68 -0.68 1.36 0 0 Z " fill="#2C4E54" transform="translate(123,386)"/>
<path d="M0 0 C1.98 0.99 1.98 0.99 4 2 C4 2.99 4 3.98 4 5 C2.68 4.67 1.36 4.34 0 4 C0 2.68 0 1.36 0 0 Z " fill="#D2E0E2" transform="translate(378,379)"/>
<path d="M0 0 C0.99 0.33 1.98 0.66 3 1 C2.625 3.4375 2.625 3.4375 2 6 C1.01 6.495 1.01 6.495 0 7 C-1.04449911 3.86650268 -0.93423645 3.01031744 0 0 Z " fill="#3D5A5A" transform="translate(422,362)"/>
<path d="M0 0 C0.66 0 1.32 0 2 0 C3.125 1.75 3.125 1.75 4 4 C3.125 6.25 3.125 6.25 2 8 C0.23537317 4.91190305 0 3.76687864 0 0 Z " fill="#33575A" transform="translate(360,348)"/>
<path d="M0 0 C0.99 0.495 0.99 0.495 2 1 C2.59355614 3.64860427 2.74209269 6.29197322 3 9 C1.5 7.875 1.5 7.875 0 6 C-0.1875 2.8125 -0.1875 2.8125 0 0 Z " fill="#457676" transform="translate(79,302)"/>
<path d="M0 0 C1.32 0.33 2.64 0.66 4 1 C4.33 2.32 4.66 3.64 5 5 C3.68 5.33 2.36 5.66 1 6 C0.67 4.02 0.34 2.04 0 0 Z " fill="#297173" transform="translate(281,214)"/>
<path d="M0 0 C2.97 0.495 2.97 0.495 6 1 C6 1.66 6 2.32 6 3 C6.66 3 7.32 3 8 3 C7.67 3.99 7.34 4.98 7 6 C5.83054208 5.19152271 4.66449539 4.37810888 3.5 3.5625 C2.8503125 3.11003906 2.200625 2.65757812 1.53125 2.19140625 C1.0259375 1.79824219 0.520625 1.40507812 0 1 C0 0.67 0 0.34 0 0 Z " fill="#B9D9DA" transform="translate(202,213)"/>
<path d="M0 0 C1.98 0 3.96 0 6 0 C5.67 1.65 5.34 3.3 5 5 C2 4 2 4 0.8125 1.9375 C0.544375 1.298125 0.27625 0.65875 0 0 Z " fill="#2C353E" transform="translate(226,114)"/>
<path d="M0 0 C0.99 0.33 1.98 0.66 3 1 C3 2.98 3 4.96 3 7 C2.01 7.495 2.01 7.495 1 8 C0.67 5.36 0.34 2.72 0 0 Z " fill="#E0E4E7" transform="translate(227,103)"/>
<path d="M0 0 C4.875 4.75 4.875 4.75 6 7 C2.62496331 5.8141763 0.35277269 4.72426311 -2 2 C-1.34 2 -0.68 2 0 2 C0 1.34 0 0.68 0 0 Z " fill="#41494D" transform="translate(262,50)"/>
</svg>
