<svg width="25" height="25" viewBox="0 0 25 25" fill="none" xmlns="http://www.w3.org/2000/svg">
<path d="M12.5 15.9502V19.4002M1 12.7345C1 10.1028 1 8.78697 1.59708 7.69615C2.19416 6.60534 3.28499 5.92834 5.46663 4.57435L7.76663 3.1469C10.0728 1.71563 11.2259 1 12.5 1C13.7741 1 14.9272 1.71563 17.2334 3.1469L19.5334 4.57434C21.7151 5.92834 22.8058 6.60534 23.4029 7.69615C24 8.78697 24 10.1028 24 12.7345V14.4838C24 18.9697 24 21.2127 22.6527 22.6063C21.3054 24 19.1369 24 14.8 24H10.2C5.86307 24 3.69462 24 2.34731 22.6063C1 21.2127 1 18.9697 1 14.4838V12.7345Z" stroke="black" stroke-width="2" stroke-linecap="round"/>
</svg>
